<svg width="101" height="63" viewBox="0 0 101 63" fill="none" xmlns="http://www.w3.org/2000/svg">
<path d="M3.90425 39.7472L0.173096 57.2727H12.7438L13.445 54.0327H4.80574L7.86078 39.7472H3.90425Z" fill="white"/>
<path d="M19.6858 49.9336C19.6858 52.4372 20.3702 54.3518 21.7392 55.6772C23.1248 57.0027 25.0863 57.6654 27.6239 57.6654C29.1931 57.6654 30.5787 57.379 31.7807 56.8063C32.9994 56.2172 34.0178 55.4236 34.8358 54.4254C35.6705 53.4272 36.3049 52.2736 36.7389 50.9645C37.173 49.6554 37.39 48.2809 37.39 46.8409C37.39 45.6136 37.198 44.5336 36.814 43.6009C36.4468 42.6681 35.9209 41.8827 35.2364 41.2445C34.552 40.6063 33.7173 40.1318 32.7323 39.8209C31.7473 39.4936 30.6539 39.33 29.4519 39.33C27.9494 39.33 26.5888 39.6163 25.3701 40.189C24.1682 40.7618 23.1415 41.539 22.2901 42.5209C21.4554 43.4863 20.8126 44.6072 20.3619 45.8836C19.9111 47.16 19.6858 48.51 19.6858 49.9336ZM23.6173 49.9336C23.6173 49.099 23.7341 48.2481 23.9678 47.3809C24.2016 46.4972 24.5521 45.7036 25.0196 45C25.5037 44.28 26.113 43.699 26.8476 43.2572C27.5988 42.799 28.4753 42.57 29.4769 42.57C30.2115 42.57 30.8292 42.6927 31.33 42.9381C31.8308 43.1836 32.2398 43.5109 32.557 43.92C32.8742 44.329 33.0996 44.8118 33.2331 45.3681C33.3834 45.9081 33.4585 46.489 33.4585 47.1109C33.4585 47.9454 33.3333 48.7963 33.0829 49.6636C32.8492 50.5309 32.4902 51.3245 32.0061 52.0445C31.522 52.7481 30.921 53.329 30.2031 53.7872C29.4853 54.229 28.6422 54.45 27.674 54.45C26.9561 54.45 26.3384 54.3272 25.8209 54.0818C25.3201 53.8363 24.9027 53.509 24.5688 53.1C24.2516 52.6745 24.0096 52.1918 23.8426 51.6518C23.6924 51.1118 23.6173 50.539 23.6173 49.9336Z" fill="white"/>
<path d="M49.3427 42.9872L46.2877 57.2727H50.2442L53.2992 42.9872H58.6581L59.3592 39.7472H44.4346L43.7335 42.9872H49.3427Z" fill="white"/>
<path d="M68.783 42.9872L65.728 57.2727H69.6845L72.7395 42.9872H78.0984L78.7995 39.7472H63.8749L63.1737 42.9872H68.783Z" fill="white"/>
<path d="M82.1883 49.9336C82.1883 52.4372 82.8728 54.3518 84.2417 55.6772C85.6273 57.0027 87.5889 57.6654 90.1264 57.6654C91.6957 57.6654 93.0813 57.379 94.2833 56.8063C95.502 56.2172 96.5203 55.4236 97.3383 54.4254C98.173 53.4272 98.8074 52.2736 99.2415 50.9645C99.6755 49.6554 99.8925 48.2809 99.8925 46.8409C99.8925 45.6136 99.7006 44.5336 99.3166 43.6009C98.9493 42.6681 98.4234 41.8827 97.739 41.2445C97.0545 40.6063 96.2198 40.1318 95.2349 39.8209C94.2499 39.4936 93.1564 39.33 91.9544 39.33C90.452 39.33 89.0914 39.6163 87.8727 40.189C86.6707 40.7618 85.644 41.539 84.7926 42.5209C83.9579 43.4863 83.3152 44.6072 82.8644 45.8836C82.4137 47.16 82.1883 48.51 82.1883 49.9336ZM86.1198 49.9336C86.1198 49.099 86.2367 48.2481 86.4704 47.3809C86.7041 46.4972 87.0547 45.7036 87.5221 45C88.0063 44.28 88.6156 43.699 89.3501 43.2572C90.1014 42.799 90.9778 42.57 91.9795 42.57C92.714 42.57 93.3317 42.6927 93.8325 42.9381C94.3334 43.1836 94.7424 43.5109 95.0596 43.92C95.3768 44.329 95.6021 44.8118 95.7357 45.3681C95.8859 45.9081 95.9611 46.489 95.9611 47.1109C95.9611 47.9454 95.8359 48.7963 95.5854 49.6636C95.3517 50.5309 94.9928 51.3245 94.5087 52.0445C94.0245 52.7481 93.4235 53.329 92.7057 53.7872C91.9878 54.229 91.1448 54.45 90.1765 54.45C89.4587 54.45 88.841 54.3272 88.3234 54.0818C87.8226 53.8363 87.4053 53.509 87.0714 53.1C86.7542 52.6745 86.5121 52.1918 86.3452 51.6518C86.1949 51.1118 86.1198 50.539 86.1198 49.9336Z" fill="white"/>
<path d="M28.1321 20.0817C29.0505 18.5291 30.5324 18.5291 31.4508 20.0817L37.17 29.9081C38.0884 31.4607 37.337 32.7273 35.5002 32.7273H23.9783C22.1624 32.7273 21.411 31.4607 22.3085 29.9081L28.1321 20.0817ZM17.0694 1.16445C17.9878 -0.388151 19.4489 -0.388151 20.3673 1.16445L21.6406 3.41164L24.6463 8.58018C25.3768 10.0511 25.3768 11.7875 24.6463 13.2584L14.5647 30.3575C13.6463 31.7467 12.1225 32.6251 10.4318 32.7273H2.0618C0.224987 32.7273 -0.526437 31.4811 0.39197 29.9081L17.0694 1.16445Z" fill="white"/>
<path d="M89.9006 20.0817C90.819 18.5291 92.301 18.5291 93.2194 20.0817L98.9386 29.9081C99.857 31.4607 99.1056 32.7273 97.2687 32.7273H85.7469C83.931 32.7273 83.1795 31.4607 84.0771 29.9081L89.9006 20.0817ZM78.838 1.16445C79.7564 -0.388151 81.2175 -0.388151 82.1359 1.16445L83.4091 3.41164L86.4148 8.58018C87.1454 10.0511 87.1454 11.7875 86.4148 13.2584L76.3332 30.3575C75.4148 31.7467 73.8911 32.6251 72.2004 32.7273H63.8304C61.9935 32.7273 61.2421 31.4811 62.1605 29.9081L78.838 1.16445Z" fill="white"/>
<path d="M40.3142 12.6456C39.3958 14.1982 37.9139 14.1982 36.9955 12.6456L31.2763 2.81923C30.3579 1.26662 31.1093 2.35034e-05 32.9461 2.36608e-05L44.468 2.46481e-05C46.2839 2.48037e-05 47.0353 1.26662 46.1378 2.81923L40.3142 12.6456ZM51.3769 31.5628C50.4585 33.1154 48.9974 33.1154 48.079 31.5628L46.8057 29.3156L43.8 24.1471C43.0695 22.6762 43.0695 20.9398 43.8 19.4689L53.8816 2.36979C54.8 0.980616 56.3238 0.102172 58.0145 2.5809e-05L66.3845 2.65262e-05C68.2213 2.66836e-05 68.9727 1.2462 68.0543 2.81923L51.3769 31.5628Z" fill="white"/>
</svg>
