<svg width="40" height="40" viewBox="0 0 40 40" fill="none" xmlns="http://www.w3.org/2000/svg">
<circle cx="20" cy="20" r="20" fill="#625B69"/>
<path d="M26.633 19.9807C27.2739 18.8736 28.3082 18.8736 28.9491 19.9807L32.9405 26.9874C33.5814 28.0945 33.057 28.9976 31.7751 28.9976H23.7342C22.4669 28.9976 21.9424 28.0945 22.5688 26.9874L26.633 19.9807ZM18.9125 6.49172C19.5535 5.38464 20.5732 5.38464 21.2141 6.49172L22.1027 8.09408L24.2003 11.7795C24.7102 12.8283 24.7102 14.0665 24.2003 15.1153L17.1645 27.3079C16.5236 28.2984 15.4602 28.9248 14.2802 28.9976H8.43891C7.15702 28.9976 6.63261 28.109 7.27355 26.9874L18.9125 6.49172Z" fill="white"/>
</svg>
