<svg width="25" height="22" viewBox="0 0 25 22" fill="none" xmlns="http://www.w3.org/2000/svg">
<path d="M18.6738 13.4994C19.2835 12.4557 20.2672 12.4557 20.8768 13.4994L24.6731 20.1049C25.2828 21.1486 24.784 22 23.5647 22H15.9166C14.7112 22 14.2124 21.1486 14.8082 20.1049L18.6738 13.4994ZM11.3305 0.782772C11.9402 -0.260924 12.91 -0.260924 13.5197 0.782772L14.3648 2.29338L16.36 5.76779C16.8449 6.75655 16.8449 7.92385 16.36 8.91261L9.6679 20.407C9.05827 21.3408 8.04684 21.9313 6.92456 22H1.36861C0.149345 22 -0.349445 21.1623 0.260187 20.1049L11.3305 0.782772Z" fill="#E84142"/>
</svg>
