<svg width="91" height="80" viewBox="0 0 91 80" fill="none" xmlns="http://www.w3.org/2000/svg">
<path d="M68.1545 49.0886C70.3794 45.2934 73.9698 45.2934 76.1948 49.0886L90.0504 73.1086C92.2754 76.9039 90.4549 80 86.005 80H58.0914C53.692 80 51.8716 76.9039 54.046 73.1086L68.1545 49.0886ZM41.3534 2.84644C43.5784 -0.948814 47.1182 -0.948814 49.3432 2.84644L52.4278 8.33958L59.7096 20.9738C61.4795 24.5693 61.4795 28.814 59.7096 32.4095L35.2853 74.2072C33.0603 77.603 29.3688 79.7503 25.2728 80H4.99505C0.545068 80 -1.27538 76.9538 0.949612 73.1086L41.3534 2.84644Z" fill="#242321"/>
</svg>
