<svg width="170" height="150" viewBox="0 0 170 150" fill="none" xmlns="http://www.w3.org/2000/svg">
<path d="M58.1622 5.85661L57.1163 7.84227L58.1767 9.82077L55.9477 9.44801L54.3824 11.0609L54.0506 8.84586L52.0308 7.85661L54.0434 6.8602L54.3607 4.64514L55.9405 6.24371L58.1622 5.85661Z" fill="white"/>
<path d="M78.4249 17.5341L78.8217 17.7634L79.2328 17.5699L79.139 18.0143L79.4564 18.3441L78.9948 18.3943L78.7784 18.7957L78.5908 18.3799L78.1436 18.2939L78.4826 17.9857L78.4249 17.5341Z" fill="#FFD200"/>
<path d="M130.412 4.85303L131.17 6.63797L133.081 7.03224L131.603 8.30105L131.819 10.2294L130.146 9.22579L128.371 10.0215L128.811 8.12901L127.505 6.69532L129.446 6.53762L130.412 4.85303Z" fill="white"/>
<path d="M152.904 27.2616L153.351 27.4695L153.777 27.2258L153.712 27.7132L154.087 28.0358L153.597 28.129L153.402 28.5806L153.164 28.1505L152.673 28.1003L153.005 27.7419L152.904 27.2616Z" fill="#FFD200"/>
<path d="M139.004 57.0108L138.657 57.5699L138.917 58.1792L138.275 58.0143L137.777 58.4588L137.734 57.7993L137.157 57.4624L137.777 57.2186L137.914 56.5735L138.347 57.0753L139.004 57.0108Z" fill="#FFD200"/>
<path d="M168.024 58.6667L168.817 59.3118L169.798 59.0251L169.423 59.9713L170 60.8101L168.983 60.7527L168.355 61.5556L168.096 60.5735L167.136 60.2294L167.995 59.6846L168.024 58.6667Z" fill="#FFD200"/>
<path d="M157.16 83.7921L156.648 84.3154L156.785 85.0394L156.121 84.7097L155.479 85.0609L155.587 84.3369L155.046 83.8351L155.775 83.7204L156.085 83.0538L156.431 83.7061L157.16 83.7921Z" fill="#FFD200"/>
<path d="M145.395 81.2688L145.604 82.2939L146.571 82.7025L145.655 83.2186L145.561 84.258L144.789 83.5555L143.757 83.7849L144.197 82.8315L143.656 81.9355L144.702 82.0573L145.395 81.2688Z" fill="#FFD200"/>
<path d="M157.283 127.67L158.855 130.538L162.13 130.882L159.865 133.255L160.55 136.459L157.578 135.054L154.729 136.688L155.155 133.441L152.709 131.255L155.948 130.652L157.283 127.67Z" fill="#FFD200"/>
<path d="M121.929 119.663L123.35 121.849L125.969 121.928L124.31 123.95L125.053 126.444L122.607 125.513L120.443 126.975L120.58 124.373L118.51 122.781L121.042 122.115L121.929 119.663Z" fill="#FFD200"/>
<path d="M94.5254 133.211L95.2179 135.692L97.6633 136.538L95.4992 137.95L95.4487 140.523L93.4217 138.925L90.9475 139.67L91.8564 137.262L90.3777 135.147L92.9601 135.262L94.5254 133.211Z" fill="#FFD200"/>
<path d="M81.4546 147.692L81.9018 147.893L82.3202 147.634L82.2697 148.115L82.6448 148.43L82.1687 148.538L81.9812 148.989L81.7359 148.566L81.2454 148.531L81.57 148.165L81.4546 147.692Z" fill="white"/>
<path d="M66.7968 147.197L66.501 148.229L67.1863 149.054L66.1043 149.09L65.52 150L65.1521 148.989L64.1062 148.717L64.9574 148.057L64.8924 146.982L65.7869 147.584L66.7968 147.197Z" fill="white"/>
<path d="M11.8373 137.778L14.8237 137.835L16.5694 135.419L17.4422 138.265L20.2915 139.168L17.839 140.867L17.8534 143.842L15.4657 142.05L12.6308 142.982L13.6046 140.172L11.8373 137.778Z" fill="#FFD200"/>
<path d="M27.3319 104.251L26.5384 105.986L27.5266 107.613L25.6223 107.405L24.3671 108.839L23.9776 106.975L22.2175 106.229L23.8838 105.29L24.0498 103.398L25.4636 104.681L27.3319 104.251Z" fill="#FFD200"/>
<path d="M17.3845 70.3369L18.7478 72.9462L21.6765 73.3118L19.599 75.405L20.1545 78.2939L17.5143 76.9749L14.9175 78.3943L15.3647 75.4839L13.2079 73.4767L16.1293 72.9964L17.3845 70.3369Z" fill="#FFD200"/>
<path d="M6.36227 89.5986L6.77344 89.6918L7.08362 89.405L7.1269 89.8208L7.49479 90.0287L7.10526 90.1936L7.02591 90.6022L6.74458 90.2868L6.3262 90.3441L6.54261 89.9785L6.36227 89.5986Z" fill="white"/>
<path d="M0 24.3011L1.24793 23.9426L1.6591 22.724L2.38766 23.7921L3.67887 23.7993L2.88539 24.8172L3.26771 26.0502L2.04863 25.6057L0.99546 26.3512L1.03874 25.0681L0 24.3011Z" fill="#FFD200"/>
<path d="M58.155 25.1685L57.4481 26.3656L58.0396 27.6201L56.6763 27.319L55.6592 28.2652L55.5221 26.8889L54.303 26.2151L55.5798 25.6631L55.8467 24.3011L56.77 25.3333L58.155 25.1685Z" fill="#FFD200"/>
<path d="M83.0199 60.5663C83.077 61.4793 82.8851 62.3907 82.4645 63.2043C82.0582 63.9483 81.5005 64.6001 80.827 65.1183C80.0916 65.6758 79.2804 66.1272 78.4177 66.4588C77.4941 66.8294 76.5442 67.1313 75.5756 67.362C74.5908 67.5991 73.5939 67.7834 72.5892 67.914C71.5865 68.0359 70.6488 68.1362 69.776 68.2007C68.9031 68.2652 68.0231 68.3083 67.0925 68.3298C66.162 68.3513 65.2387 68.3298 64.3081 68.2868C63.3776 68.2437 62.4543 68.129 61.5309 67.9857C60.6355 67.8449 59.7528 67.6339 58.8908 67.3548C57.7655 58.92 56.6498 50.4875 55.5438 42.0573C56.4099 41.6984 57.2962 41.3896 58.1983 41.1326C59.1433 40.8602 60.1171 40.6308 61.0837 40.4158C62.0503 40.2007 63.0818 40.0932 64.0773 39.9928C65.0728 39.8925 66.0538 39.8566 66.9988 39.8566C68.1194 39.8588 69.2391 39.921 70.353 40.043C71.4591 40.1672 72.554 40.3757 73.6279 40.6667C74.646 40.9399 75.6362 41.3071 76.5855 41.7634C77.4651 42.1823 78.2791 42.7256 79.002 43.3763C79.681 43.9862 80.2409 44.7152 80.6539 45.5269C81.0728 46.399 81.3015 47.3493 81.3247 48.3154C81.3586 48.9703 81.2631 49.6254 81.0434 50.2437C80.8363 50.8364 80.5126 51.3823 80.0912 51.8495C79.6486 52.3413 79.124 52.7536 78.5403 53.0681C77.8887 53.422 77.1889 53.6804 76.4628 53.8351C77.3848 54.0296 78.2772 54.3428 79.1174 54.767C79.8829 55.148 80.5799 55.6518 81.1805 56.2581C81.7416 56.8283 82.196 57.4935 82.5222 58.2222C82.8371 58.9649 83.006 59.7605 83.0199 60.5663V60.5663ZM68.6579 56.2652C68.2494 56.2848 67.8437 56.3424 67.446 56.4373C67.5758 58.1864 67.6408 59.0609 67.7778 60.81L68.4198 60.8817C68.6239 60.896 68.8288 60.896 69.033 60.8817C69.3626 60.8576 69.6903 60.8121 70.014 60.7455C70.361 60.67 70.6927 60.5367 70.995 60.3513C71.2855 60.1678 71.5318 59.9231 71.7164 59.6344C71.9119 59.2778 71.9877 58.8684 71.9328 58.466C71.916 58.0456 71.7756 57.6393 71.5288 57.2975C71.3066 57.0028 71.0238 56.7584 70.6993 56.5807C70.3731 56.4214 70.0217 56.3195 69.6605 56.2796C69.3268 56.2529 68.9915 56.2529 68.6579 56.2796V56.2652ZM71.2764 49.9785C71.2575 49.6382 71.1369 49.3113 70.9301 49.0394C70.733 48.7867 70.4879 48.5748 70.2088 48.4158C69.9341 48.265 69.637 48.1585 69.3287 48.1004C69.0678 48.0274 68.7989 47.9865 68.528 47.9785C68.2325 47.9812 67.9387 48.0246 67.6552 48.1075C67.3739 48.1936 67.107 48.2867 66.8473 48.3943C66.9555 50.1004 67.006 50.9462 67.1142 52.6523C67.5343 52.6355 67.9532 52.5972 68.3693 52.5376C68.8643 52.4715 69.349 52.3439 69.812 52.1577C70.243 51.9874 70.6282 51.7199 70.9373 51.3763C71.0837 51.1798 71.1892 50.9562 71.2474 50.7186C71.3056 50.481 71.3154 50.2343 71.2764 49.9928V49.9785Z" fill="url(#paint0_linear_43_1)"/>
<path d="M95.9753 42.2939C95.0135 50.2843 94.1383 58.2867 93.3496 66.3011C89.8078 66.3727 88.0405 66.4444 84.5203 66.6523C84.2606 58.3751 83.9985 50.0956 83.734 41.8136C88.6392 41.8925 91.0846 41.9856 95.9753 42.2939Z" fill="url(#paint1_linear_43_1)"/>
<path d="M122.398 66.129C121.586 66.7015 120.691 67.1486 119.744 67.4552C118.699 67.8135 117.625 68.0821 116.534 68.2581C115.398 68.4478 114.251 68.5651 113.1 68.6093C111.999 68.6536 110.895 68.6321 109.796 68.5448C107.903 68.403 106.045 67.9601 104.292 67.233C102.696 66.5785 101.231 65.6464 99.9644 64.4803C98.75 63.3683 97.7693 62.0283 97.079 60.5376C96.3908 59.0404 96.0482 57.4092 96.0763 55.7634C96.0935 54.4999 96.3002 53.246 96.6894 52.043C97.0713 50.8565 97.6332 49.7348 98.3558 48.7168C99.0932 47.6885 99.9833 46.7772 100.996 46.0143C102.091 45.2042 103.305 44.566 104.595 44.1218C105.992 43.639 107.448 43.3449 108.924 43.2473C110.588 43.1405 112.26 43.2368 113.901 43.534C114.557 43.6487 115.257 43.7921 116 43.9713C116.743 44.1505 117.443 44.3441 118.164 44.5806C118.881 44.806 119.584 45.0717 120.27 45.3763C120.908 45.6567 121.523 45.985 122.11 46.3584C121.569 48.7813 121.302 49.9928 120.775 52.4229C119.979 52.0473 119.151 51.7426 118.301 51.5125C117.453 51.2814 116.593 51.0947 115.726 50.9534C114.618 50.7636 113.49 50.725 112.372 50.8387C111.418 50.9532 110.494 51.2398 109.645 51.6846C108.877 52.0765 108.217 52.6471 107.719 53.3477C107.225 54.0763 106.948 54.9284 106.918 55.8064C106.881 56.3944 106.949 56.9843 107.12 57.5484C107.29 58.1188 107.572 58.65 107.95 59.1111C108.353 59.5928 108.842 59.9963 109.392 60.3011C110.04 60.6412 110.748 60.853 111.477 60.9247C112.041 60.9753 112.608 60.9753 113.172 60.9247C113.703 60.897 114.224 60.7705 114.709 60.552C114.795 60.0358 114.831 59.7849 114.918 59.2688C112.848 58.9606 111.816 58.8172 109.739 58.552C109.984 56.5448 110.114 55.534 110.359 53.534C112.552 53.7634 114.74 54.0334 116.923 54.3441C119.087 54.6523 121.302 54.9749 123.516 55.319C123.062 59.6487 122.838 61.8136 122.398 66.129Z" fill="url(#paint2_linear_43_1)"/>
<path d="M82.3995 72.2007C81.1876 80.9128 80.1128 89.6368 79.1751 98.3728C75.049 99.0896 73.0003 99.4982 68.9175 100.423C67.4748 95.0466 66.6813 92.3441 65.0944 86.9104C64.7626 92.2437 64.6255 94.9319 64.4091 100.337C60.3335 101.398 58.3137 101.978 54.3102 103.204C51.2469 94.3011 48.0754 85.4361 44.7957 76.6093C48.727 75.4552 50.7035 74.9319 54.6853 73.9642C56.5031 80.4158 57.376 83.6631 59.0783 90.086C59.1505 83.3118 59.2226 79.957 59.4462 73.2832C62.6274 72.8674 64.2215 72.681 67.3811 72.3656C69.3143 78.7097 70.2664 81.8566 71.9905 88.1004C72.0337 81.6057 72.077 78.3728 72.2141 71.9355C76.3113 71.9928 78.3455 72.0358 82.3995 72.2007Z" fill="url(#paint3_linear_43_1)"/>
<path d="M94.5759 71.6702C93.7391 79.7945 92.9865 87.902 92.3181 95.9928C89.2091 96.4229 87.6582 96.6666 84.578 97.2114L83.6763 72.301C88.0044 71.9426 90.2117 71.8136 94.5759 71.6702Z" fill="url(#paint4_linear_43_1)"/>
<path d="M123.848 73.3548C122.367 80.4946 120.939 87.6416 119.563 94.7957C115.618 94.9534 113.648 95.0824 109.739 95.4337C108.058 90.6093 107.171 88.1577 105.266 83.1685C104.631 88.1864 104.321 90.7384 103.723 95.8065C100.397 95.9283 98.738 96.0215 95.427 96.2724C95.7685 87.9283 96.1364 79.5842 96.5307 71.2401C100.635 71.1541 102.691 71.1613 106.81 71.2401C109.356 76.3154 110.554 78.81 112.819 83.7061C113.36 79.2186 113.627 76.9749 114.182 72.4946C118.049 72.7742 119.982 72.9391 123.848 73.3548Z" fill="url(#paint5_linear_43_1)"/>
<path d="M135.613 74.4229C133.738 80.6237 132.815 83.7419 131.018 90.0573C128.191 89.7419 126.777 89.6057 123.949 89.3835C124.671 82.7599 124.973 79.4337 125.623 72.767C129.626 73.3477 131.632 73.6774 135.613 74.4229ZM130.456 94.7527C130.374 95.1947 130.186 95.6104 129.907 95.9642C129.622 96.3346 129.276 96.6545 128.883 96.9104C128.465 97.1739 128.01 97.3767 127.534 97.5125C127.032 97.6481 126.51 97.7014 125.991 97.6702C125.493 97.6448 125.005 97.5306 124.548 97.3333C124.13 97.1503 123.75 96.8901 123.43 96.5663C123.125 96.2606 122.893 95.8907 122.752 95.4839C122.602 95.066 122.56 94.6175 122.629 94.1792C122.695 93.7218 122.865 93.2854 123.127 92.9032C123.391 92.5084 123.732 92.1697 124.129 91.9068C124.549 91.6273 125.012 91.419 125.5 91.2903C126.02 91.1542 126.559 91.1081 127.094 91.1541C127.612 91.1977 128.118 91.3337 128.587 91.5556C129.013 91.7588 129.399 92.0355 129.727 92.3728C130.027 92.6918 130.256 93.0705 130.398 93.4839C130.525 93.8951 130.545 94.3318 130.456 94.7527V94.7527Z" fill="url(#paint6_linear_43_1)"/>
<defs>
<linearGradient id="paint0_linear_43_1" x1="71.6947" y1="43.319" x2="64.1366" y2="70.1825" gradientUnits="userSpaceOnUse">
<stop offset="0.01" stop-color="#FAAD3B"/>
<stop offset="0.22" stop-color="#FFDC00"/>
<stop offset="0.64" stop-color="#FFAD00"/>
<stop offset="1" stop-color="#E48237"/>
</linearGradient>
<linearGradient id="paint1_linear_43_1" x1="1635.56" y1="2254.45" x2="1247.42" y2="2930.6" gradientUnits="userSpaceOnUse">
<stop offset="0.01" stop-color="#FBAE3C"/>
<stop offset="0.22" stop-color="#FFDC00"/>
<stop offset="0.64" stop-color="#FFAD00"/>
<stop offset="1" stop-color="#E38138"/>
</linearGradient>
<linearGradient id="paint2_linear_43_1" x1="4406.88" y1="2381.69" x2="4188.32" y2="3215.27" gradientUnits="userSpaceOnUse">
<stop offset="0.01" stop-color="#FBAE3C"/>
<stop offset="0.22" stop-color="#FFDC00"/>
<stop offset="0.64" stop-color="#FFAD00"/>
<stop offset="1" stop-color="#E48237"/>
</linearGradient>
<linearGradient id="paint3_linear_43_1" x1="3510.37" y1="4073.09" x2="3154.06" y2="5587.07" gradientUnits="userSpaceOnUse">
<stop offset="0.01" stop-color="#FAAD3B"/>
<stop offset="0.22" stop-color="#FFDC00"/>
<stop offset="0.64" stop-color="#FFAD00"/>
<stop offset="1" stop-color="#E28037"/>
</linearGradient>
<linearGradient id="paint4_linear_43_1" x1="1458.87" y1="3406.08" x2="1021.12" y2="4066.13" gradientUnits="userSpaceOnUse">
<stop offset="0.01" stop-color="#FAB136"/>
<stop offset="0.22" stop-color="#FFDC00"/>
<stop offset="0.64" stop-color="#FFAD00"/>
<stop offset="1" stop-color="#E48237"/>
</linearGradient>
<linearGradient id="paint5_linear_43_1" x1="4466.03" y1="3323.38" x2="4226.59" y2="4281.33" gradientUnits="userSpaceOnUse">
<stop offset="0.01" stop-color="#FDAB3D"/>
<stop offset="0.22" stop-color="#FFDC00"/>
<stop offset="0.64" stop-color="#FFAD00"/>
<stop offset="1" stop-color="#FF7F00"/>
<stop offset="1" stop-color="#E28037"/>
</linearGradient>
<linearGradient id="paint6_linear_43_1" x1="2474.97" y1="3396.01" x2="2117.91" y2="4054.71" gradientUnits="userSpaceOnUse">
<stop offset="0.01" stop-color="#FAAD3B"/>
<stop offset="0.22" stop-color="#FFDC00"/>
<stop offset="0.64" stop-color="#FFAD00"/>
<stop offset="1" stop-color="#E68639"/>
</linearGradient>
</defs>
</svg>
