<svg width="121" height="77" viewBox="0 0 121 77" fill="none" xmlns="http://www.w3.org/2000/svg">
<g clip-path="url(#clip0_48_234)">
<path d="M4.67728 48.58L0.207275 70H15.2673L16.1073 66.04H5.75728L9.41728 48.58H4.67728Z" fill="white"/>
<path d="M23.5838 61.03C23.5838 64.09 24.4038 66.43 26.0438 68.05C27.7038 69.67 30.0538 70.48 33.0938 70.48C34.9738 70.48 36.6338 70.13 38.0738 69.43C39.5338 68.71 40.7538 67.74 41.7338 66.52C42.7338 65.3 43.4938 63.89 44.0138 62.29C44.5338 60.69 44.7938 59.01 44.7938 57.25C44.7938 55.75 44.5638 54.43 44.1038 53.29C43.6638 52.15 43.0338 51.19 42.2138 50.41C41.3938 49.63 40.3938 49.05 39.2138 48.67C38.0338 48.27 36.7238 48.07 35.2838 48.07C33.4838 48.07 31.8538 48.42 30.3938 49.12C28.9538 49.82 27.7238 50.77 26.7038 51.97C25.7038 53.15 24.9338 54.52 24.3938 56.08C23.8538 57.64 23.5838 59.29 23.5838 61.03ZM28.2938 61.03C28.2938 60.01 28.4338 58.97 28.7138 57.91C28.9938 56.83 29.4138 55.86 29.9738 55C30.5538 54.12 31.2838 53.41 32.1638 52.87C33.0638 52.31 34.1138 52.03 35.3138 52.03C36.1938 52.03 36.9338 52.18 37.5338 52.48C38.1338 52.78 38.6238 53.18 39.0038 53.68C39.3838 54.18 39.6538 54.77 39.8138 55.45C39.9938 56.11 40.0838 56.82 40.0838 57.58C40.0838 58.6 39.9338 59.64 39.6338 60.7C39.3538 61.76 38.9238 62.73 38.3438 63.61C37.7638 64.47 37.0438 65.18 36.1838 65.74C35.3238 66.28 34.3138 66.55 33.1538 66.55C32.2938 66.55 31.5538 66.4 30.9338 66.1C30.3338 65.8 29.8338 65.4 29.4338 64.9C29.0538 64.38 28.7638 63.79 28.5638 63.13C28.3838 62.47 28.2938 61.77 28.2938 61.03Z" fill="white"/>
<path d="M59.1134 52.54L55.4534 70H60.1935L63.8535 52.54H70.2734L71.1134 48.58H53.2334L52.3934 52.54H59.1134Z" fill="white"/>
<path d="M82.4033 52.54L78.7433 70H83.4833L87.1433 52.54H93.5633L94.4033 48.58H76.5233L75.6833 52.54H82.4033Z" fill="white"/>
<path d="M98.4631 61.03C98.4631 64.09 99.2831 66.43 100.923 68.05C102.583 69.67 104.933 70.48 107.973 70.48C109.853 70.48 111.513 70.13 112.953 69.43C114.413 68.71 115.633 67.74 116.613 66.52C117.613 65.3 118.373 63.89 118.893 62.29C119.413 60.69 119.673 59.01 119.673 57.25C119.673 55.75 119.443 54.43 118.983 53.29C118.543 52.15 117.913 51.19 117.093 50.41C116.273 49.63 115.273 49.05 114.093 48.67C112.913 48.27 111.603 48.07 110.163 48.07C108.363 48.07 106.733 48.42 105.273 49.12C103.833 49.82 102.603 50.77 101.583 51.97C100.583 53.15 99.8131 54.52 99.2731 56.08C98.7331 57.64 98.4631 59.29 98.4631 61.03ZM103.173 61.03C103.173 60.01 103.313 58.97 103.593 57.91C103.873 56.83 104.293 55.86 104.853 55C105.433 54.12 106.163 53.41 107.043 52.87C107.943 52.31 108.993 52.03 110.193 52.03C111.073 52.03 111.813 52.18 112.413 52.48C113.013 52.78 113.503 53.18 113.883 53.68C114.263 54.18 114.533 54.77 114.693 55.45C114.873 56.11 114.963 56.82 114.963 57.58C114.963 58.6 114.813 59.64 114.513 60.7C114.233 61.76 113.803 62.73 113.223 63.61C112.643 64.47 111.923 65.18 111.063 65.74C110.203 66.28 109.193 66.55 108.033 66.55C107.173 66.55 106.433 66.4 105.813 66.1C105.213 65.8 104.713 65.4 104.313 64.9C103.933 64.38 103.643 63.79 103.443 63.13C103.263 62.47 103.173 61.77 103.173 61.03Z" fill="white"/>
<path d="M33.7028 24.5443C34.803 22.6467 36.5785 22.6467 37.6787 24.5443L44.5304 36.5543C45.6307 38.4519 44.7305 40 42.5299 40H28.7265C26.551 40 25.6508 38.4519 26.726 36.5543L33.7028 24.5443ZM20.4495 1.42322C21.5498 -0.474407 23.3002 -0.474407 24.4005 1.42322L25.9258 4.16979L29.5267 10.4869C30.4019 12.2846 30.4019 14.407 29.5267 16.2047L17.4488 37.1036C16.3485 38.8015 14.523 39.8752 12.4975 40H2.47008C0.269539 40 -0.630682 38.4769 0.469588 36.5543L20.4495 1.42322Z" fill="white"/>
<path d="M107.703 24.5443C108.803 22.6467 110.578 22.6467 111.679 24.5443L118.53 36.5543C119.631 38.4519 118.73 40 116.53 40H102.727C100.551 40 99.6508 38.4519 100.726 36.5543L107.703 24.5443ZM94.4495 1.42322C95.5498 -0.474407 97.3002 -0.474407 98.4005 1.42322L99.9258 4.16979L103.527 10.4869C104.402 12.2846 104.402 14.407 103.527 16.2047L91.4488 37.1036C90.3485 38.8015 88.523 39.8752 86.4975 40H76.4701C74.2695 40 73.3693 38.4769 74.4696 36.5543L94.4495 1.42322Z" fill="white"/>
<path d="M48.2973 15.4557C47.197 17.3533 45.4215 17.3533 44.3213 15.4557L37.4696 3.44569C36.3693 1.54806 37.2695 -3.91046e-06 39.4701 -3.71808e-06L53.2735 -2.51135e-06C55.449 -2.32116e-06 56.3492 1.54806 55.274 3.44569L48.2973 15.4557ZM61.5505 38.5768C60.4502 40.4744 58.6998 40.4744 57.5995 38.5768L56.0742 35.8302L52.4733 29.5131C51.5981 27.7154 51.5981 25.593 52.4733 23.7953L64.5512 2.89638C65.6515 1.1985 67.477 0.124842 69.5025 -1.09257e-06L79.5299 -2.15941e-07C81.7305 -2.35638e-08 82.6307 1.5231 81.5304 3.44569L61.5505 38.5768Z" fill="white"/>
</g>
<defs>
<clipPath id="clip0_48_234">
<rect width="121" height="77" fill="white"/>
</clipPath>
</defs>
</svg>
