<svg width="322" height="440" viewBox="0 0 322 440" fill="none" xmlns="http://www.w3.org/2000/svg">
<path d="M284.213 12.6111L293.498 4.68795H281.292H43.0741H32.1898L39.8963 12.3741L96.0743 68.4041C84.3775 79.6806 68.9006 96.664 55.0129 115.063C39.8316 135.175 26.104 157.553 21.7055 176.264C16.4153 198.769 9.92653 246.219 6.63736 290.73C4.99097 313.011 4.13523 334.694 4.64833 352.259C4.90469 361.035 5.50516 368.884 6.54741 375.311C7.56207 381.568 9.08265 387.091 11.5528 390.728C13.9048 394.192 17.5562 397.323 21.8588 400.162C26.2091 403.031 31.4894 405.771 37.3773 408.361C49.1542 413.541 63.7075 418.268 78.8966 422.267C109.208 430.247 142.729 435.5 162.762 435.5C182.953 435.5 215.524 428.5 244.473 419.707C259.017 415.289 272.824 410.365 283.898 405.539C289.432 403.127 294.349 400.712 298.361 398.365C302.291 396.066 305.67 393.652 307.846 391.16C310.298 388.353 311.901 383.947 313.07 379.086C314.284 374.041 315.19 367.78 315.84 360.65C317.141 346.373 317.452 328.167 316.967 308.291C315.998 268.531 311.831 221.653 305.808 185.324C300.832 155.313 284.342 128.948 266.061 108.306C250.071 90.2505 232.491 76.3238 219.419 67.8996L284.213 12.6111Z" fill="#DEDED4" stroke="#DEDED4" stroke-width="9"/>
<g filter="url(#filter0_d_2_220)">
<path d="M282.281 3H44.0628L103.521 62.3012C79.9692 84.1309 35.4144 135.628 27.0748 171.106C16.6504 215.453 1.20679 359.839 16.2643 382.012C31.3218 404.186 124.756 424.812 163.751 424.812C202.746 424.812 291.933 397.482 305.446 382.012C318.959 366.542 314.326 252.065 302.357 179.872C292.782 122.118 238.652 77.4273 212.784 62.3012L282.281 3Z" fill="#009A59"/>
</g>
<defs>
<filter id="filter0_d_2_220" x="4.98872" y="3" width="308.683" height="430.812" filterUnits="userSpaceOnUse" color-interpolation-filters="sRGB">
<feFlood flood-opacity="0" result="BackgroundImageFix"/>
<feColorMatrix in="SourceAlpha" type="matrix" values="0 0 0 0 0 0 0 0 0 0 0 0 0 0 0 0 0 0 127 0" result="hardAlpha"/>
<feOffset dx="-5" dy="9"/>
<feComposite in2="hardAlpha" operator="out"/>
<feColorMatrix type="matrix" values="0 0 0 0 0 0 0 0 0 0 0 0 0 0 0 0 0 0 1 0"/>
<feBlend mode="normal" in2="BackgroundImageFix" result="effect1_dropShadow_2_220"/>
<feBlend mode="normal" in="SourceGraphic" in2="effect1_dropShadow_2_220" result="shape"/>
</filter>
</defs>
</svg>
