<svg width="387" height="724" viewBox="0 0 387 724" fill="none" xmlns="http://www.w3.org/2000/svg">
<path d="M146.624 282.544L10.1326 213.947L150.415 260.563L44.6345 178.702L162.548 248.814L79.5 0.5L188 242.75L197 105L211 248.814L298 38L232.689 238.5L342.261 112L246.338 242.75L342.261 178.702L254.3 260.563L387 213.947L280.461 265.869L273.257 278.754L387 268.522L273.257 293.535L387 311.347L273.257 303.388L387 349.246L282.357 330.675L387 400.409L278.565 357.583L387 449.298L278.565 387.144L372.593 492.124L256.196 387.144L331.266 516L232.689 380.323L282.357 516L225 387.144L254.3 594.5L201.5 387.144L197 724L188 387.144L111 617.5L168 387.144L95.8187 516L159.515 380.323L49.5634 511.452L153.448 375.396L2.17057 484.544L146.624 357.583L-2 437.171L134.491 334.465L-2 390.555L115.534 318.548L-2 341.666L99.9893 303.388H-2L124.634 289.745L-2 263.595L146.624 282.544Z" fill="url(#paint0_radial_597_748)"/>
<defs>
<radialGradient id="paint0_radial_597_748" cx="0" cy="0" r="1" gradientUnits="userSpaceOnUse" gradientTransform="translate(192.5 313.999) rotate(90) scale(202 194.5)">
<stop offset="0.6875" stop-color="#F1CE6C"/>
<stop offset="1" stop-color="#FF5900"/>
</radialGradient>
</defs>
</svg>
