<svg width="262" height="401" viewBox="0 0 262 401" fill="none" xmlns="http://www.w3.org/2000/svg">
<g clip-path="url(#clip0_600_793)">
<g filter="url(#filter0_d_600_793)">
<rect width="262" height="401" rx="12" fill="#C4C4C4"/>
</g>
<path d="M109.244 183.785H111.998L120.694 197.73V183.785H122.908V201H120.295L111.471 187.066V201H109.244V183.785ZM127.051 183.785H138.992V185.895H129.383V191.121H137.832V193.172H129.383V201H127.051V183.785ZM154.267 183.785V185.836H148.467V201H146.099V185.836H140.299V183.785H154.267ZM42.4484 211.785H50.1945C51.7258 211.785 52.9602 212.219 53.8977 213.086C54.8352 213.945 55.3039 215.156 55.3039 216.719C55.3039 218.062 54.8859 219.234 54.05 220.234C53.2141 221.227 51.9289 221.723 50.1945 221.723H44.7805V229H42.4484V211.785ZM52.9484 216.73C52.9484 215.465 52.4797 214.605 51.5422 214.152C51.0266 213.91 50.3195 213.789 49.4211 213.789H44.7805V219.754H49.4211C50.468 219.754 51.3156 219.531 51.9641 219.086C52.6203 218.641 52.9484 217.855 52.9484 216.73ZM58.4736 211.785H60.8056V226.949H69.5244V229H58.4736V211.785ZM80.9089 221.945L78.2956 214.34L75.5183 221.945H80.9089ZM77.0769 211.785H79.7136L85.9597 229H83.405L81.6589 223.844H74.8503L72.987 229H70.5964L77.0769 211.785ZM95.5747 211.316C97.7544 211.316 99.4458 211.891 100.649 213.039C101.852 214.188 102.52 215.492 102.653 216.953H100.379C100.122 215.844 99.6059 214.965 98.8325 214.316C98.0669 213.668 96.9888 213.344 95.5981 213.344C93.9028 213.344 92.5317 213.941 91.4848 215.137C90.4458 216.324 89.9263 218.148 89.9263 220.609C89.9263 222.625 90.395 224.262 91.3325 225.52C92.2778 226.77 93.6841 227.395 95.5513 227.395C97.27 227.395 98.5786 226.734 99.477 225.414C99.9536 224.719 100.309 223.805 100.543 222.672H102.817C102.614 224.484 101.942 226.004 100.801 227.23C99.4341 228.707 97.5903 229.445 95.27 229.445C93.27 229.445 91.5903 228.84 90.2309 227.629C88.4419 226.027 87.5473 223.555 87.5473 220.211C87.5473 217.672 88.2192 215.59 89.563 213.965C91.0161 212.199 93.02 211.316 95.5747 211.316ZM106.127 211.785H118.678V213.895H108.401V219.121H117.905V221.113H108.401V226.949H118.854V229H106.127V211.785ZM122.211 211.785H124.566V218.898H133.52V211.785H135.875V229H133.52V220.949H124.566V229H122.211V211.785ZM147.166 211.316C150.205 211.316 152.455 212.293 153.916 214.246C155.056 215.77 155.627 217.719 155.627 220.094C155.627 222.664 154.974 224.801 153.67 226.504C152.138 228.504 149.955 229.504 147.119 229.504C144.47 229.504 142.388 228.629 140.873 226.879C139.521 225.191 138.845 223.059 138.845 220.48C138.845 218.152 139.424 216.16 140.58 214.504C142.064 212.379 144.26 211.316 147.166 211.316ZM147.4 227.418C149.455 227.418 150.939 226.684 151.853 225.215C152.775 223.738 153.236 222.043 153.236 220.129C153.236 218.105 152.705 216.477 151.642 215.242C150.588 214.008 149.142 213.391 147.306 213.391C145.525 213.391 144.072 214.004 142.947 215.23C141.822 216.449 141.26 218.25 141.26 220.633C141.26 222.539 141.74 224.148 142.701 225.461C143.67 226.766 145.236 227.418 147.4 227.418ZM158.656 211.785H160.988V226.949H169.707V229H158.656V211.785ZM178.865 227.008C179.654 227.008 180.302 226.926 180.81 226.762C181.716 226.457 182.458 225.871 183.036 225.004C183.497 224.309 183.829 223.418 184.033 222.332C184.15 221.684 184.208 221.082 184.208 220.527C184.208 218.395 183.783 216.738 182.931 215.559C182.087 214.379 180.724 213.789 178.841 213.789H174.704V227.008H178.865ZM172.361 211.785H179.333C181.7 211.785 183.536 212.625 184.841 214.305C186.005 215.82 186.587 217.762 186.587 220.129C186.587 221.957 186.243 223.609 185.556 225.086C184.345 227.695 182.263 229 179.31 229H172.361V211.785ZM190.062 211.785H202.612V213.895H192.335V219.121H201.839V221.113H192.335V226.949H202.788V229H190.062V211.785ZM214.091 219.672C215.184 219.672 216.048 219.453 216.68 219.016C217.321 218.578 217.641 217.789 217.641 216.648C217.641 215.422 217.196 214.586 216.305 214.141C215.829 213.906 215.192 213.789 214.395 213.789H208.7V219.672H214.091ZM206.368 211.785H214.337C215.649 211.785 216.731 211.977 217.583 212.359C219.2 213.094 220.009 214.449 220.009 216.426C220.009 217.457 219.794 218.301 219.364 218.957C218.942 219.613 218.348 220.141 217.583 220.539C218.255 220.812 218.759 221.172 219.095 221.617C219.438 222.062 219.63 222.785 219.669 223.785L219.751 226.094C219.774 226.75 219.829 227.238 219.915 227.559C220.055 228.105 220.305 228.457 220.665 228.613V229H217.805C217.727 228.852 217.665 228.66 217.618 228.426C217.571 228.191 217.532 227.738 217.501 227.066L217.36 224.195C217.305 223.07 216.887 222.316 216.106 221.934C215.661 221.723 214.962 221.617 214.009 221.617H208.7V229H206.368V211.785Z" fill="black"/>
</g>
<defs>
<filter id="filter0_d_600_793" x="-19" y="-15" width="300" height="439" filterUnits="userSpaceOnUse" color-interpolation-filters="sRGB">
<feFlood flood-opacity="0" result="BackgroundImageFix"/>
<feColorMatrix in="SourceAlpha" type="matrix" values="0 0 0 0 0 0 0 0 0 0 0 0 0 0 0 0 0 0 127 0" result="hardAlpha"/>
<feOffset dy="4"/>
<feGaussianBlur stdDeviation="9.5"/>
<feComposite in2="hardAlpha" operator="out"/>
<feColorMatrix type="matrix" values="0 0 0 0 0 0 0 0 0 0 0 0 0 0 0 0 0 0 0.25 0"/>
<feBlend mode="normal" in2="BackgroundImageFix" result="effect1_dropShadow_600_793"/>
<feBlend mode="normal" in="SourceGraphic" in2="effect1_dropShadow_600_793" result="shape"/>
</filter>
<clipPath id="clip0_600_793">
<rect width="262" height="401" fill="white"/>
</clipPath>
</defs>
</svg>
