<svg width="322" height="440" viewBox="0 0 322 440" fill="none" xmlns="http://www.w3.org/2000/svg">
<path d="M284.213 12.6111L293.498 4.68795H281.292H43.0741H32.1898L39.8963 12.3741L96.0743 68.4041C84.3775 79.6806 68.9006 96.664 55.0129 115.063C39.8316 135.175 26.104 157.553 21.7055 176.264C16.4153 198.769 9.92653 246.219 6.63736 290.73C4.99097 313.011 4.13523 334.694 4.64833 352.259C4.90469 361.035 5.50516 368.884 6.54741 375.311C7.56207 381.568 9.08265 387.091 11.5528 390.728C13.9048 394.192 17.5562 397.323 21.8588 400.162C26.2091 403.031 31.4894 405.771 37.3773 408.361C49.1542 413.541 63.7075 418.268 78.8966 422.267C109.208 430.247 142.729 435.5 162.762 435.5C182.953 435.5 215.524 428.5 244.473 419.707C259.017 415.289 272.824 410.365 283.898 405.539C289.432 403.127 294.349 400.712 298.361 398.365C302.291 396.066 305.67 393.652 307.846 391.16C310.298 388.353 311.901 383.947 313.07 379.086C314.284 374.041 315.19 367.78 315.84 360.65C317.141 346.373 317.452 328.167 316.967 308.291C315.998 268.531 311.831 221.653 305.808 185.324C300.832 155.313 284.342 128.948 266.061 108.306C250.071 90.2505 232.491 76.3238 219.419 67.8996L284.213 12.6111Z" fill="#DEDED4" stroke="#DEDED4" stroke-width="9"/>
<g filter="url(#filter0_d_2_220)">
<path d="M282.281 3H44.0628L103.521 62.3012C79.9692 84.1309 35.4144 135.628 27.0748 171.106C16.6504 215.453 1.20679 359.839 16.2643 382.012C31.3218 404.186 124.756 424.812 163.751 424.812C202.746 424.812 291.933 397.482 305.446 382.012C318.959 366.542 314.326 252.065 302.357 179.872C292.782 122.118 238.652 77.4273 212.784 62.3012L282.281 3Z" fill="#009A59"/>
</g>
<path d="M29.4508 425V413.076H33.7188V410.326H22.0148V413.076H26.3048V425H29.4508ZM43.1108 425V418.136C43.1108 415.078 40.8888 414.11 38.4688 414.11C36.7968 414.11 35.1248 414.638 33.8268 415.782L34.8828 417.652C35.7848 416.816 36.8408 416.398 37.9848 416.398C39.3928 416.398 40.3168 417.102 40.3168 418.18V419.61C39.6128 418.774 38.3588 418.312 36.9508 418.312C35.2568 418.312 33.2548 419.258 33.2548 421.744C33.2548 424.12 35.2568 425.264 36.9508 425.264C38.3368 425.264 39.5908 424.758 40.3168 423.9V425H43.1108ZM38.0728 423.372C36.9728 423.372 36.0708 422.8 36.0708 421.81C36.0708 420.776 36.9728 420.204 38.0728 420.204C38.9748 420.204 39.8548 420.512 40.3168 421.128V422.448C39.8548 423.064 38.9748 423.372 38.0728 423.372ZM51.9541 425.264C54.6821 425.264 56.6621 423.218 56.6621 419.676C56.6621 416.134 54.6821 414.11 51.9541 414.11C50.6561 414.11 49.4901 414.682 48.6761 415.716V414.374H45.8821V429.048H48.6761V423.636C49.5341 424.736 50.7001 425.264 51.9541 425.264ZM51.0741 422.778C50.1721 422.778 49.1381 422.228 48.6761 421.568V417.806C49.1381 417.124 50.1721 416.596 51.0741 416.596C52.6801 416.596 53.7581 417.85 53.7581 419.676C53.7581 421.524 52.6801 422.778 51.0741 422.778ZM67.9012 425.264C69.0672 425.264 69.8152 424.956 70.2332 424.582L69.6392 422.47C69.4852 422.624 69.0892 422.778 68.6712 422.778C68.0552 422.778 67.7032 422.272 67.7032 421.612V416.816H69.8592V414.374H67.7032V411.47H64.8872V414.374H63.1272V416.816H64.8872V422.36C64.8872 424.252 65.9432 425.264 67.9012 425.264ZM81.7588 425V417.454C81.7588 415.386 80.6368 414.11 78.3048 414.11C76.5668 414.11 75.2468 414.946 74.5648 415.76V410.326H71.7708V425H74.5648V417.85C75.0488 417.212 75.9068 416.596 76.9848 416.596C78.1948 416.596 78.9648 417.058 78.9648 418.532V425H81.7588ZM89.5265 425.264C91.1765 425.264 92.8485 424.758 93.9045 423.79L92.6725 421.986C91.9905 422.646 90.7365 423.042 89.8345 423.042C88.0305 423.042 86.9525 421.92 86.7765 420.578H94.6745V419.962C94.6745 416.486 92.5185 414.11 89.3505 414.11C86.1165 414.11 83.8505 416.596 83.8505 419.676C83.8505 423.086 86.2925 425.264 89.5265 425.264ZM91.9685 418.686H86.7325C86.8645 417.63 87.6125 416.332 89.3505 416.332C91.1985 416.332 91.9025 417.674 91.9685 418.686ZM112.288 425V417.498C112.288 415.43 111.166 414.11 108.834 414.11C107.096 414.11 105.798 414.946 105.116 415.76V414.374H102.322V425H105.116V417.85C105.578 417.212 106.436 416.596 107.536 416.596C108.724 416.596 109.494 417.102 109.494 418.576V425H112.288ZM125.028 425V414.374H122.234V421.568C121.75 422.184 120.892 422.778 119.814 422.778C118.626 422.778 117.856 422.294 117.856 420.82V414.374H115.062V421.92C115.062 423.988 116.162 425.264 118.494 425.264C120.232 425.264 121.508 424.472 122.234 423.658V425H125.028ZM143.796 425V417.322C143.796 415.144 142.63 414.11 140.672 414.11C139.044 414.11 137.636 415.078 137.02 416.046C136.624 414.836 135.634 414.11 134.072 414.11C132.444 414.11 131.036 415.122 130.596 415.76V414.374H127.802V425H130.596V417.85C131.014 417.256 131.828 416.596 132.796 416.596C133.94 416.596 134.38 417.3 134.38 418.29V425H137.196V417.828C137.592 417.256 138.406 416.596 139.396 416.596C140.54 416.596 140.98 417.3 140.98 418.29V425H143.796ZM149.33 421.59V417.828C149.792 417.124 150.826 416.596 151.728 416.596C153.356 416.596 154.434 417.85 154.434 419.698C154.434 421.546 153.356 422.778 151.728 422.778C150.826 422.778 149.792 422.272 149.33 421.59ZM149.33 425V423.636C150.166 424.692 151.332 425.264 152.608 425.264C155.292 425.264 157.316 423.24 157.316 419.698C157.316 416.222 155.314 414.11 152.608 414.11C151.354 414.11 150.166 414.66 149.33 415.738V410.326H146.536V425H149.33ZM164.421 425.264C166.071 425.264 167.743 424.758 168.799 423.79L167.567 421.986C166.885 422.646 165.631 423.042 164.729 423.042C162.925 423.042 161.847 421.92 161.671 420.578H169.569V419.962C169.569 416.486 167.413 414.11 164.245 414.11C161.011 414.11 158.745 416.596 158.745 419.676C158.745 423.086 161.187 425.264 164.421 425.264ZM166.863 418.686H161.627C161.759 417.63 162.507 416.332 164.245 416.332C166.093 416.332 166.797 417.674 166.863 418.686ZM174.381 425V417.982C174.843 417.3 176.075 416.772 176.999 416.772C177.307 416.772 177.571 416.794 177.769 416.838V414.11C176.449 414.11 175.129 414.88 174.381 415.826V414.374H171.587V425H174.381ZM188.708 425.264C189.874 425.264 190.622 424.956 191.04 424.582L190.446 422.47C190.292 422.624 189.896 422.778 189.478 422.778C188.862 422.778 188.51 422.272 188.51 421.612V416.816H190.666V414.374H188.51V411.47H185.694V414.374H183.934V416.816H185.694V422.36C185.694 424.252 186.75 425.264 188.708 425.264ZM197.505 425.264C201.025 425.264 203.137 422.712 203.137 419.676C203.137 416.662 201.025 414.11 197.505 414.11C194.007 414.11 191.895 416.662 191.895 419.676C191.895 422.712 194.007 425.264 197.505 425.264ZM197.505 422.778C195.767 422.778 194.799 421.348 194.799 419.676C194.799 418.026 195.767 416.596 197.505 416.596C199.243 416.596 200.233 418.026 200.233 419.676C200.233 421.348 199.243 422.778 197.505 422.778ZM215.789 425.264C217.967 425.264 219.287 424.318 219.991 423.328L218.165 421.634C217.659 422.338 216.889 422.778 215.921 422.778C214.227 422.778 213.039 421.524 213.039 419.676C213.039 417.828 214.227 416.596 215.921 416.596C216.889 416.596 217.659 416.992 218.165 417.74L219.991 416.024C219.287 415.056 217.967 414.11 215.789 414.11C212.511 414.11 210.157 416.42 210.157 419.676C210.157 422.954 212.511 425.264 215.789 425.264ZM231.806 425V417.454C231.806 415.386 230.684 414.11 228.352 414.11C226.614 414.11 225.294 414.946 224.612 415.76V410.326H221.818V425H224.612V417.85C225.096 417.212 225.954 416.596 227.032 416.596C228.242 416.596 229.012 417.058 229.012 418.532V425H231.806ZM243.753 425V418.136C243.753 415.078 241.531 414.11 239.111 414.11C237.439 414.11 235.767 414.638 234.469 415.782L235.525 417.652C236.427 416.816 237.483 416.398 238.627 416.398C240.035 416.398 240.959 417.102 240.959 418.18V419.61C240.255 418.774 239.001 418.312 237.593 418.312C235.899 418.312 233.897 419.258 233.897 421.744C233.897 424.12 235.899 425.264 237.593 425.264C238.979 425.264 240.233 424.758 240.959 423.9V425H243.753ZM238.715 423.372C237.615 423.372 236.713 422.8 236.713 421.81C236.713 420.776 237.615 420.204 238.715 420.204C239.617 420.204 240.497 420.512 240.959 421.128V422.448C240.497 423.064 239.617 423.372 238.715 423.372ZM256.491 425V417.498C256.491 415.43 255.369 414.11 253.037 414.11C251.299 414.11 250.001 414.946 249.319 415.76V414.374H246.525V425H249.319V417.85C249.781 417.212 250.639 416.596 251.739 416.596C252.927 416.596 253.697 417.102 253.697 418.576V425H256.491ZM263.621 429.312C266.239 429.312 269.363 428.322 269.363 424.274V414.374H266.547V415.738C265.689 414.66 264.545 414.11 263.269 414.11C260.585 414.11 258.583 416.046 258.583 419.522C258.583 423.064 260.607 424.934 263.269 424.934C264.567 424.934 265.711 424.318 266.547 423.262V424.34C266.547 426.43 264.963 427.024 263.621 427.024C262.279 427.024 261.157 426.65 260.299 425.704L259.045 427.728C260.387 428.894 261.795 429.312 263.621 429.312ZM264.149 422.448C262.565 422.448 261.465 421.348 261.465 419.522C261.465 417.696 262.565 416.596 264.149 416.596C265.073 416.596 266.085 417.102 266.547 417.806V421.238C266.085 421.92 265.073 422.448 264.149 422.448ZM277.128 425.264C278.778 425.264 280.45 424.758 281.506 423.79L280.274 421.986C279.592 422.646 278.338 423.042 277.436 423.042C275.632 423.042 274.554 421.92 274.378 420.578H282.276V419.962C282.276 416.486 280.12 414.11 276.952 414.11C273.718 414.11 271.452 416.596 271.452 419.676C271.452 423.086 273.894 425.264 277.128 425.264ZM279.57 418.686H274.334C274.466 417.63 275.214 416.332 276.952 416.332C278.8 416.332 279.504 417.674 279.57 418.686ZM291.309 413.23C292.233 413.23 292.981 412.482 292.981 411.558C292.981 410.634 292.233 409.908 291.309 409.908C290.407 409.908 289.637 410.634 289.637 411.558C289.637 412.482 290.407 413.23 291.309 413.23ZM292.717 425V414.374H289.923V425H292.717ZM299.052 425.264C300.218 425.264 300.966 424.956 301.384 424.582L300.79 422.47C300.636 422.624 300.24 422.778 299.822 422.778C299.206 422.778 298.854 422.272 298.854 421.612V416.816H301.01V414.374H298.854V411.47H296.038V414.374H294.278V416.816H296.038V422.36C296.038 424.252 297.094 425.264 299.052 425.264Z" fill="#D6DDD5"/>
<path d="M29.4508 425V427C30.5554 427 31.4508 426.105 31.4508 425H29.4508ZM29.4508 413.076V411.076C28.3463 411.076 27.4508 411.971 27.4508 413.076H29.4508ZM33.7188 413.076V415.076C34.8234 415.076 35.7188 414.181 35.7188 413.076H33.7188ZM33.7188 410.326H35.7188C35.7188 409.221 34.8234 408.326 33.7188 408.326V410.326ZM22.0148 410.326V408.326C20.9103 408.326 20.0148 409.221 20.0148 410.326H22.0148ZM22.0148 413.076H20.0148C20.0148 414.181 20.9103 415.076 22.0148 415.076V413.076ZM26.3048 413.076H28.3048C28.3048 411.971 27.4094 411.076 26.3048 411.076V413.076ZM26.3048 425H24.3048C24.3048 426.105 25.2003 427 26.3048 427V425ZM31.4508 425V413.076H27.4508V425H31.4508ZM29.4508 415.076H33.7188V411.076H29.4508V415.076ZM35.7188 413.076V410.326H31.7188V413.076H35.7188ZM33.7188 408.326H22.0148V412.326H33.7188V408.326ZM20.0148 410.326V413.076H24.0148V410.326H20.0148ZM22.0148 415.076H26.3048V411.076H22.0148V415.076ZM24.3048 413.076V425H28.3048V413.076H24.3048ZM26.3048 427H29.4508V423H26.3048V427ZM43.1108 425V427C44.2154 427 45.1108 426.105 45.1108 425H43.1108ZM33.8268 415.782L32.5044 414.282C31.7953 414.907 31.6205 415.942 32.0853 416.765L33.8268 415.782ZM34.8828 417.652L33.1413 418.635C33.4421 419.168 33.9702 419.534 34.5747 419.628C35.1792 419.722 35.7936 419.535 36.2423 419.119L34.8828 417.652ZM40.3168 419.61L38.787 420.898C39.3281 421.541 40.2132 421.777 41.0025 421.489C41.7917 421.201 42.3168 420.45 42.3168 419.61H40.3168ZM40.3168 423.9H42.3168C42.3168 423.061 41.7928 422.311 41.0047 422.022C40.2166 421.733 39.3321 421.967 38.79 422.608L40.3168 423.9ZM40.3168 425H38.3168C38.3168 426.105 39.2122 427 40.3168 427V425ZM40.3168 421.128H42.3168C42.3168 420.695 42.1764 420.274 41.9168 419.928L40.3168 421.128ZM40.3168 422.448L41.9168 423.648C42.1764 423.302 42.3168 422.881 42.3168 422.448H40.3168ZM45.1108 425V418.136H41.1108V425H45.1108ZM45.1108 418.136C45.1108 416.058 44.3183 414.41 42.8739 413.359C41.5376 412.387 39.894 412.11 38.4688 412.11V416.11C39.4636 416.11 40.141 416.317 40.5206 416.593C40.7922 416.791 41.1108 417.156 41.1108 418.136H45.1108ZM38.4688 412.11C36.3863 412.11 34.2212 412.768 32.5044 414.282L35.1492 417.282C36.0283 416.508 37.2072 416.11 38.4688 416.11V412.11ZM32.0853 416.765L33.1413 418.635L36.6243 416.669L35.5683 414.799L32.0853 416.765ZM36.2423 419.119C36.7928 418.609 37.3693 418.398 37.9848 418.398V414.398C36.3122 414.398 34.7767 415.023 33.5233 416.185L36.2423 419.119ZM37.9848 418.398C38.1725 418.398 38.3036 418.422 38.3842 418.445C38.4648 418.469 38.483 418.488 38.4651 418.474C38.4437 418.458 38.3982 418.415 38.361 418.34C38.3232 418.264 38.3168 418.202 38.3168 418.18H42.3168C42.3168 417.007 41.7863 415.978 40.8925 415.295C40.0472 414.65 38.9993 414.398 37.9848 414.398V418.398ZM38.3168 418.18V419.61H42.3168V418.18H38.3168ZM41.8466 418.322C40.6377 416.886 38.7226 416.312 36.9508 416.312V420.312C37.995 420.312 38.5879 420.662 38.787 420.898L41.8466 418.322ZM36.9508 416.312C35.7718 416.312 34.3881 416.635 33.249 417.51C32.0362 418.442 31.2548 419.89 31.2548 421.744H35.2548C35.2548 421.112 35.4743 420.844 35.6861 420.682C35.9715 420.462 36.4358 420.312 36.9508 420.312V416.312ZM31.2548 421.744C31.2548 423.559 32.0459 424.997 33.2007 425.943C34.3049 426.846 35.6887 427.264 36.9508 427.264V423.264C36.5189 423.264 36.0546 423.11 35.7343 422.847C35.4647 422.627 35.2548 422.305 35.2548 421.744H31.2548ZM36.9508 427.264C38.7713 427.264 40.6483 426.604 41.8436 425.192L38.79 422.608C38.5332 422.912 37.9022 423.264 36.9508 423.264V427.264ZM38.3168 423.9V425H42.3168V423.9H38.3168ZM40.3168 427H43.1108V423H40.3168V427ZM38.0728 421.372C37.9686 421.372 37.8942 421.358 37.8508 421.346C37.8066 421.333 37.8105 421.326 37.8436 421.351C37.8799 421.377 37.9442 421.437 37.9978 421.538C38.0535 421.644 38.0708 421.745 38.0708 421.81H34.0708C34.0708 422.991 34.6407 423.961 35.475 424.574C36.2577 425.149 37.2024 425.372 38.0728 425.372V421.372ZM38.0708 421.81C38.0708 421.85 38.06 421.935 38.0097 422.033C37.9607 422.129 37.8991 422.189 37.8593 422.219C37.8232 422.246 37.8152 422.241 37.8559 422.23C37.896 422.218 37.9685 422.204 38.0728 422.204V418.204C37.2028 418.204 36.2489 418.427 35.4593 419.019C34.6142 419.653 34.0708 420.637 34.0708 421.81H38.0708ZM38.0728 422.204C38.3059 422.204 38.4983 422.245 38.626 422.296C38.756 422.347 38.7563 422.381 38.7168 422.328L41.9168 419.928C40.9337 418.617 39.3192 418.204 38.0728 418.204V422.204ZM38.3168 421.128V422.448H42.3168V421.128H38.3168ZM38.7168 421.248C38.7563 421.195 38.756 421.229 38.626 421.28C38.4983 421.331 38.3059 421.372 38.0728 421.372V425.372C39.3192 425.372 40.9337 424.959 41.9168 423.648L38.7168 421.248ZM48.6761 415.716H46.6761C46.6761 416.568 47.2162 417.327 48.0215 417.606C48.8268 417.885 49.7204 417.623 50.2476 416.953L48.6761 415.716ZM48.6761 414.374H50.6761C50.6761 413.269 49.7807 412.374 48.6761 412.374V414.374ZM45.8821 414.374V412.374C44.7775 412.374 43.8821 413.269 43.8821 414.374H45.8821ZM45.8821 429.048H43.8821C43.8821 430.153 44.7775 431.048 45.8821 431.048V429.048ZM48.6761 429.048V431.048C49.7807 431.048 50.6761 430.153 50.6761 429.048H48.6761ZM48.6761 423.636L50.2531 422.406C49.7279 421.733 48.8332 421.467 48.0257 421.745C47.2182 422.022 46.6761 422.782 46.6761 423.636H48.6761ZM48.6761 421.568H46.6761C46.6761 421.978 46.8023 422.379 47.0376 422.715L48.6761 421.568ZM48.6761 417.806L47.0203 416.684C46.796 417.015 46.6761 417.406 46.6761 417.806H48.6761ZM51.9541 427.264C53.8465 427.264 55.5892 426.539 56.8354 425.116C58.0624 423.716 58.6621 421.811 58.6621 419.676H54.6621C54.6621 421.083 54.2718 421.972 53.8267 422.48C53.4009 422.966 52.7896 423.264 51.9541 423.264V427.264ZM58.6621 419.676C58.6621 417.541 58.0622 415.639 56.8317 414.243C55.5825 412.825 53.8397 412.11 51.9541 412.11V416.11C52.7965 416.11 53.4077 416.407 53.8305 416.887C54.272 417.388 54.6621 418.269 54.6621 419.676H58.6621ZM51.9541 412.11C50.032 412.11 48.2909 412.972 47.1046 414.479L50.2476 416.953C50.6893 416.392 51.2802 416.11 51.9541 416.11V412.11ZM50.6761 415.716V414.374H46.6761V415.716H50.6761ZM48.6761 412.374H45.8821V416.374H48.6761V412.374ZM43.8821 414.374V429.048H47.8821V414.374H43.8821ZM45.8821 431.048H48.6761V427.048H45.8821V431.048ZM50.6761 429.048V423.636H46.6761V429.048H50.6761ZM47.0991 424.866C48.3406 426.458 50.0913 427.264 51.9541 427.264V423.264C51.3089 423.264 50.7276 423.014 50.2531 422.406L47.0991 424.866ZM51.0741 420.778C51.005 420.778 50.8329 420.749 50.6227 420.641C50.5267 420.592 50.4465 420.538 50.3873 420.489C50.3257 420.439 50.3075 420.411 50.3146 420.421L47.0376 422.715C47.4998 423.375 48.1562 423.871 48.7975 424.2C49.4453 424.532 50.2412 424.778 51.0741 424.778V420.778ZM50.6761 421.568V417.806H46.6761V421.568H50.6761ZM50.3319 418.928C50.3232 418.941 50.3371 418.917 50.3927 418.871C50.4464 418.827 50.5213 418.776 50.6137 418.73C50.8145 418.628 50.9905 418.596 51.0741 418.596V414.596C50.2557 414.596 49.4636 414.828 48.8065 415.161C48.1569 415.49 47.4875 415.995 47.0203 416.684L50.3319 418.928ZM51.0741 418.596C51.3203 418.596 51.4323 418.675 51.508 418.762C51.6047 418.874 51.7581 419.149 51.7581 419.676H55.7581C55.7581 418.377 55.3725 417.112 54.5287 416.14C53.6639 415.144 52.4338 414.596 51.0741 414.596V418.596ZM51.7581 419.676C51.7581 420.22 51.6015 420.501 51.5047 420.613C51.4297 420.7 51.3197 420.778 51.0741 420.778V424.778C52.4345 424.778 53.6665 424.229 54.532 423.227C55.3756 422.25 55.7581 420.98 55.7581 419.676H51.7581ZM70.2332 424.582L71.5668 426.072C72.1356 425.564 72.3651 424.775 72.1585 424.041L70.2332 424.582ZM69.6392 422.47L71.5645 421.929C71.3722 421.245 70.8319 420.715 70.1449 420.535C69.4578 420.355 68.7271 420.554 68.225 421.056L69.6392 422.47ZM67.7032 416.816V414.816C66.5986 414.816 65.7032 415.711 65.7032 416.816H67.7032ZM69.8592 416.816V418.816C70.9637 418.816 71.8592 417.921 71.8592 416.816H69.8592ZM69.8592 414.374H71.8592C71.8592 413.269 70.9637 412.374 69.8592 412.374V414.374ZM67.7032 414.374H65.7032C65.7032 415.479 66.5986 416.374 67.7032 416.374V414.374ZM67.7032 411.47H69.7032C69.7032 410.365 68.8077 409.47 67.7032 409.47V411.47ZM64.8872 411.47V409.47C63.7826 409.47 62.8872 410.365 62.8872 411.47H64.8872ZM64.8872 414.374V416.374C65.9917 416.374 66.8872 415.479 66.8872 414.374H64.8872ZM63.1272 414.374V412.374C62.0226 412.374 61.1272 413.269 61.1272 414.374H63.1272ZM63.1272 416.816H61.1272C61.1272 417.921 62.0226 418.816 63.1272 418.816V416.816ZM64.8872 416.816H66.8872C66.8872 415.711 65.9917 414.816 64.8872 414.816V416.816ZM67.9012 427.264C69.3944 427.264 70.6754 426.87 71.5668 426.072L68.8996 423.092C68.9549 423.042 68.7399 423.264 67.9012 423.264V427.264ZM72.1585 424.041L71.5645 421.929L67.7139 423.011L68.3079 425.123L72.1585 424.041ZM68.225 421.056C68.358 420.923 68.4723 420.856 68.5144 420.833C68.5663 420.804 68.6003 420.792 68.6126 420.787C68.6321 420.781 68.645 420.778 68.6712 420.778V424.778C69.1153 424.778 69.5353 424.698 69.8958 424.576C70.2102 424.47 70.671 424.267 71.0534 423.884L68.225 421.056ZM68.6712 420.778C68.7966 420.778 68.9591 420.805 69.1295 420.888C69.2995 420.97 69.4323 421.085 69.5259 421.203C69.7041 421.429 69.7032 421.609 69.7032 421.612H65.7032C65.7032 422.275 65.8782 423.038 66.3864 423.682C66.9334 424.375 67.7555 424.778 68.6712 424.778V420.778ZM69.7032 421.612V416.816H65.7032V421.612H69.7032ZM67.7032 418.816H69.8592V414.816H67.7032V418.816ZM71.8592 416.816V414.374H67.8592V416.816H71.8592ZM69.8592 412.374H67.7032V416.374H69.8592V412.374ZM69.7032 414.374V411.47H65.7032V414.374H69.7032ZM67.7032 409.47H64.8872V413.47H67.7032V409.47ZM62.8872 411.47V414.374H66.8872V411.47H62.8872ZM64.8872 412.374H63.1272V416.374H64.8872V412.374ZM61.1272 414.374V416.816H65.1272V414.374H61.1272ZM63.1272 418.816H64.8872V414.816H63.1272V418.816ZM62.8872 416.816V422.36H66.8872V416.816H62.8872ZM62.8872 422.36C62.8872 423.672 63.2605 424.988 64.2732 425.963C65.2733 426.925 66.5974 427.264 67.9012 427.264V423.264C67.247 423.264 67.064 423.097 67.0466 423.08C67.0419 423.076 66.8872 422.94 66.8872 422.36H62.8872ZM81.7588 425V427C82.8633 427 83.7588 426.105 83.7588 425H81.7588ZM74.5648 415.76H72.5648C72.5648 416.601 73.091 417.352 73.8814 417.64C74.6719 417.927 75.5577 417.689 76.0978 417.044L74.5648 415.76ZM74.5648 410.326H76.5648C76.5648 409.221 75.6693 408.326 74.5648 408.326V410.326ZM71.7708 410.326V408.326C70.6662 408.326 69.7708 409.221 69.7708 410.326H71.7708ZM71.7708 425H69.7708C69.7708 426.105 70.6662 427 71.7708 427V425ZM74.5648 425V427C75.6693 427 76.5648 426.105 76.5648 425H74.5648ZM74.5648 417.85L72.9714 416.641C72.7076 416.989 72.5648 417.413 72.5648 417.85H74.5648ZM78.9648 425H76.9648C76.9648 426.105 77.8602 427 78.9648 427V425ZM83.7588 425V417.454H79.7588V425H83.7588ZM83.7588 417.454C83.7588 416.072 83.3796 414.662 82.3272 413.599C81.2705 412.532 79.8263 412.11 78.3048 412.11V416.11C79.1152 416.11 79.3981 416.326 79.4853 416.414C79.577 416.506 79.7588 416.768 79.7588 417.454H83.7588ZM78.3048 412.11C75.9176 412.11 74.0552 413.254 73.0317 414.476L76.0978 417.044C76.4383 416.638 77.216 416.11 78.3048 416.11V412.11ZM76.5648 415.76V410.326H72.5648V415.76H76.5648ZM74.5648 408.326H71.7708V412.326H74.5648V408.326ZM69.7708 410.326V425H73.7708V410.326H69.7708ZM71.7708 427H74.5648V423H71.7708V427ZM76.5648 425V417.85H72.5648V425H76.5648ZM76.1581 419.059C76.2508 418.937 76.3867 418.81 76.543 418.721C76.691 418.637 76.8368 418.596 76.9848 418.596V414.596C75.1199 414.596 73.7241 415.649 72.9714 416.641L76.1581 419.059ZM76.9848 418.596C77.0734 418.596 77.1415 418.6 77.192 418.606C77.2425 418.612 77.269 418.618 77.2765 418.62C77.2835 418.622 77.2676 418.618 77.2365 418.603C77.2043 418.586 77.1608 418.559 77.1141 418.519C77.0668 418.477 77.0269 418.431 76.996 418.385C76.9657 418.34 76.9511 418.305 76.9459 418.291C76.941 418.278 76.946 418.287 76.9521 418.327C76.9583 418.367 76.9648 418.434 76.9648 418.532H80.9648C80.9648 417.466 80.6799 416.321 79.743 415.504C78.863 414.737 77.7816 414.596 76.9848 414.596V418.596ZM76.9648 418.532V425H80.9648V418.532H76.9648ZM78.9648 427H81.7588V423H78.9648V427ZM93.9045 423.79L95.2559 425.264C95.9891 424.592 96.117 423.483 95.5561 422.662L93.9045 423.79ZM92.6725 421.986L94.3241 420.858C93.9916 420.371 93.4613 420.056 92.8748 419.996C92.2882 419.937 91.7053 420.139 91.2816 420.549L92.6725 421.986ZM86.7765 420.578V418.578C86.2007 418.578 85.6529 418.826 85.2731 419.259C84.8934 419.692 84.7186 420.267 84.7935 420.838L86.7765 420.578ZM94.6745 420.578V422.578C95.7791 422.578 96.6745 421.683 96.6745 420.578H94.6745ZM91.9685 418.686V420.686C92.5215 420.686 93.0499 420.457 93.428 420.053C93.8061 419.65 94.0002 419.108 93.9642 418.556L91.9685 418.686ZM86.7325 418.686L84.7479 418.438C84.6768 419.007 84.8535 419.58 85.2331 420.01C85.6128 420.44 86.1588 420.686 86.7325 420.686V418.686ZM89.5265 427.264C91.5095 427.264 93.7239 426.669 95.2559 425.264L92.553 422.316C91.9731 422.847 90.8435 423.264 89.5265 423.264V427.264ZM95.5561 422.662L94.3241 420.858L91.0209 423.114L92.2529 424.918L95.5561 422.662ZM91.2816 420.549C91.2115 420.617 91.0095 420.755 90.6672 420.877C90.3349 420.995 90.0228 421.042 89.8345 421.042V425.042C90.5482 425.042 91.314 424.891 92.0048 424.646C92.6855 424.405 93.4515 424.015 94.0633 423.423L91.2816 420.549ZM89.8345 421.042C89.3616 421.042 89.1209 420.903 89.0051 420.802C88.8809 420.694 88.7879 420.535 88.7595 420.318L84.7935 420.838C85.1027 423.196 87.0475 425.042 89.8345 425.042V421.042ZM86.7765 422.578H94.6745V418.578H86.7765V422.578ZM96.6745 420.578V419.962H92.6745V420.578H96.6745ZM96.6745 419.962C96.6745 417.813 96.0037 415.843 94.6804 414.387C93.3426 412.916 91.4618 412.11 89.3505 412.11V416.11C90.4072 416.11 91.1883 416.492 91.7206 417.078C92.2672 417.679 92.6745 418.635 92.6745 419.962H96.6745ZM89.3505 412.11C84.9444 412.11 81.8505 415.56 81.8505 419.676H85.8505C85.8505 417.632 87.2886 416.11 89.3505 416.11V412.11ZM81.8505 419.676C81.8505 421.88 82.6517 423.815 84.0932 425.194C85.5235 426.562 87.4577 427.264 89.5265 427.264V423.264C88.3612 423.264 87.4574 422.877 86.8583 422.304C86.2703 421.741 85.8505 420.882 85.8505 419.676H81.8505ZM91.9685 416.686H86.7325V420.686H91.9685V416.686ZM88.717 418.934C88.742 418.734 88.825 418.561 88.9099 418.468C88.9447 418.431 88.9808 418.404 89.0268 418.384C89.0724 418.364 89.1702 418.332 89.3505 418.332V414.332C87.9272 414.332 86.771 414.887 85.9686 415.758C85.212 416.578 84.8549 417.582 84.7479 418.438L88.717 418.934ZM89.3505 418.332C89.5664 418.332 89.6829 418.37 89.7348 418.393C89.7858 418.415 89.816 418.439 89.8403 418.466C89.9046 418.538 89.9636 418.676 89.9727 418.816L93.9642 418.556C93.9074 417.684 93.5814 416.645 92.8152 415.793C92.0004 414.886 90.8109 414.332 89.3505 414.332V418.332ZM112.288 425V427C113.392 427 114.288 426.105 114.288 425H112.288ZM105.116 415.76H103.116C103.116 416.601 103.642 417.352 104.432 417.64C105.223 417.927 106.108 417.689 106.649 417.044L105.116 415.76ZM105.116 414.374H107.116C107.116 413.269 106.22 412.374 105.116 412.374V414.374ZM102.322 414.374V412.374C101.217 412.374 100.322 413.269 100.322 414.374H102.322ZM102.322 425H100.322C100.322 426.105 101.217 427 102.322 427V425ZM105.116 425V427C106.22 427 107.116 426.105 107.116 425H105.116ZM105.116 417.85L103.496 416.677C103.249 417.018 103.116 417.429 103.116 417.85H105.116ZM109.494 425H107.494C107.494 426.105 108.389 427 109.494 427V425ZM114.288 425V417.498H110.288V425H114.288ZM114.288 417.498C114.288 416.117 113.909 414.705 112.869 413.635C111.819 412.554 110.374 412.11 108.834 412.11V416.11C109.625 416.11 109.907 416.326 110.001 416.422C110.105 416.529 110.288 416.811 110.288 417.498H114.288ZM108.834 412.11C106.437 412.11 104.599 413.262 103.583 414.476L106.649 417.044C106.996 416.63 107.754 416.11 108.834 416.11V412.11ZM107.116 415.76V414.374H103.116V415.76H107.116ZM105.116 412.374H102.322V416.374H105.116V412.374ZM100.322 414.374V425H104.322V414.374H100.322ZM102.322 427H105.116V423H102.322V427ZM107.116 425V417.85H103.116V425H107.116ZM106.735 419.023C106.906 418.787 107.209 418.596 107.536 418.596V414.596C105.662 414.596 104.249 415.637 103.496 416.677L106.735 419.023ZM107.536 418.596C107.614 418.596 107.673 418.6 107.715 418.605C107.756 418.611 107.776 418.616 107.778 418.617C107.779 418.617 107.76 418.612 107.729 418.595C107.696 418.577 107.655 418.55 107.613 418.512C107.592 418.493 107.573 418.473 107.555 418.452C107.537 418.431 107.522 418.41 107.51 418.391C107.485 418.352 107.474 418.324 107.471 418.316C107.468 418.309 107.474 418.323 107.481 418.366C107.487 418.41 107.494 418.478 107.494 418.576H111.494C111.494 417.509 111.209 416.377 110.307 415.555C109.441 414.766 108.365 414.596 107.536 414.596V418.596ZM107.494 418.576V425H111.494V418.576H107.494ZM109.494 427H112.288V423H109.494V427ZM125.028 425V427C126.132 427 127.028 426.105 127.028 425H125.028ZM125.028 414.374H127.028C127.028 413.269 126.132 412.374 125.028 412.374V414.374ZM122.234 414.374V412.374C121.129 412.374 120.234 413.269 120.234 414.374H122.234ZM122.234 421.568L123.806 422.804C124.083 422.451 124.234 422.016 124.234 421.568H122.234ZM117.856 414.374H119.856C119.856 413.269 118.96 412.374 117.856 412.374V414.374ZM115.062 414.374V412.374C113.957 412.374 113.062 413.269 113.062 414.374H115.062ZM122.234 423.658H124.234C124.234 422.828 123.721 422.085 122.946 421.789C122.171 421.494 121.293 421.708 120.741 422.327L122.234 423.658ZM122.234 425H120.234C120.234 426.105 121.129 427 122.234 427V425ZM127.028 425V414.374H123.028V425H127.028ZM125.028 412.374H122.234V416.374H125.028V412.374ZM120.234 414.374V421.568H124.234V414.374H120.234ZM120.661 420.332C120.459 420.59 120.136 420.778 119.814 420.778V424.778C121.648 424.778 123.041 423.778 123.806 422.804L120.661 420.332ZM119.814 420.778C119.732 420.778 119.671 420.774 119.626 420.768C119.582 420.763 119.56 420.757 119.556 420.756C119.554 420.756 119.572 420.76 119.604 420.777C119.637 420.795 119.679 420.822 119.723 420.862C119.745 420.881 119.765 420.902 119.784 420.924C119.803 420.946 119.819 420.968 119.833 420.988C119.86 421.03 119.873 421.061 119.877 421.072C119.88 421.082 119.875 421.07 119.869 421.028C119.862 420.986 119.856 420.918 119.856 420.82H115.856C115.856 421.887 116.14 423.023 117.055 423.842C117.926 424.621 119.002 424.778 119.814 424.778V420.778ZM119.856 420.82V414.374H115.856V420.82H119.856ZM117.856 412.374H115.062V416.374H117.856V412.374ZM113.062 414.374V421.92H117.062V414.374H113.062ZM113.062 421.92C113.062 423.292 113.43 424.702 114.476 425.768C115.529 426.842 116.972 427.264 118.494 427.264V423.264C117.684 423.264 117.411 423.048 117.331 422.967C117.244 422.878 117.062 422.616 117.062 421.92H113.062ZM118.494 427.264C120.872 427.264 122.67 426.173 123.726 424.989L120.741 422.327C120.345 422.771 119.591 423.264 118.494 423.264V427.264ZM120.234 423.658V425H124.234V423.658H120.234ZM122.234 427H125.028V423H122.234V427ZM143.796 425V427C144.901 427 145.796 426.105 145.796 425H143.796ZM137.02 416.046L135.119 416.668C135.36 417.403 136.003 417.934 136.77 418.03C137.538 418.127 138.292 417.772 138.707 417.12L137.02 416.046ZM130.596 415.76H128.596C128.596 416.636 129.165 417.409 130.001 417.67C130.837 417.93 131.745 417.616 132.242 416.895L130.596 415.76ZM130.596 414.374H132.596C132.596 413.269 131.701 412.374 130.596 412.374V414.374ZM127.802 414.374V412.374C126.697 412.374 125.802 413.269 125.802 414.374H127.802ZM127.802 425H125.802C125.802 426.105 126.697 427 127.802 427V425ZM130.596 425V427C131.701 427 132.596 426.105 132.596 425H130.596ZM130.596 417.85L128.96 416.699C128.723 417.036 128.596 417.438 128.596 417.85H130.596ZM134.38 425H132.38C132.38 426.105 133.275 427 134.38 427V425ZM137.196 425V427C138.301 427 139.196 426.105 139.196 425H137.196ZM137.196 417.828L135.552 416.69C135.32 417.024 135.196 417.421 135.196 417.828H137.196ZM140.98 425H138.98C138.98 426.105 139.875 427 140.98 427V425ZM145.796 425V417.322H141.796V425H145.796ZM145.796 417.322C145.796 415.889 145.408 414.5 144.375 413.478C143.347 412.46 141.986 412.11 140.672 412.11V416.11C141.316 416.11 141.517 416.277 141.561 416.321C141.602 416.36 141.796 416.577 141.796 417.322H145.796ZM140.672 412.11C138.303 412.11 136.284 413.477 135.333 414.972L138.707 417.12C138.822 416.939 139.077 416.671 139.462 416.45C139.836 416.235 140.255 416.11 140.672 416.11V412.11ZM138.921 415.424C138.601 414.448 138.005 413.577 137.103 412.967C136.213 412.365 135.162 412.11 134.072 412.11V416.11C134.544 416.11 134.769 416.218 134.863 416.281C134.946 416.337 135.043 416.434 135.119 416.668L138.921 415.424ZM134.072 412.11C132.85 412.11 131.764 412.486 130.931 412.94C130.132 413.376 129.396 413.977 128.95 414.625L132.242 416.895C132.236 416.905 132.424 416.681 132.846 416.452C133.234 416.24 133.666 416.11 134.072 416.11V412.11ZM132.596 415.76V414.374H128.596V415.76H132.596ZM130.596 412.374H127.802V416.374H130.596V412.374ZM125.802 414.374V425H129.802V414.374H125.802ZM127.802 427H130.596V423H127.802V427ZM132.596 425V417.85H128.596V425H132.596ZM132.232 419.001C132.302 418.901 132.423 418.777 132.562 418.689C132.695 418.604 132.774 418.596 132.796 418.596V414.596C130.938 414.596 129.59 415.804 128.96 416.699L132.232 419.001ZM132.796 418.596C132.88 418.596 132.859 418.609 132.778 418.576C132.687 418.54 132.579 418.468 132.489 418.362C132.404 418.262 132.377 418.179 132.372 418.161C132.368 418.148 132.38 418.185 132.38 418.29H136.38C136.38 417.54 136.219 416.58 135.545 415.782C134.82 414.922 133.797 414.596 132.796 414.596V418.596ZM132.38 418.29V425H136.38V418.29H132.38ZM134.38 427H137.196V423H134.38V427ZM139.196 425V417.828H135.196V425H139.196ZM138.84 418.966C138.892 418.892 139 418.777 139.137 418.691C139.266 418.61 139.353 418.596 139.396 418.596V414.596C137.533 414.596 136.178 415.785 135.552 416.69L138.84 418.966ZM139.396 418.596C139.48 418.596 139.459 418.609 139.378 418.576C139.287 418.54 139.179 418.468 139.089 418.362C139.004 418.262 138.977 418.179 138.972 418.161C138.968 418.148 138.98 418.185 138.98 418.29H142.98C142.98 417.54 142.819 416.58 142.145 415.782C141.42 414.922 140.397 414.596 139.396 414.596V418.596ZM138.98 418.29V425H142.98V418.29H138.98ZM140.98 427H143.796V423H140.98V427ZM149.33 421.59H147.33C147.33 421.99 147.45 422.381 147.675 422.712L149.33 421.59ZM149.33 417.828L147.658 416.731C147.444 417.057 147.33 417.438 147.33 417.828H149.33ZM149.33 425V427C150.435 427 151.33 426.105 151.33 425H149.33ZM149.33 423.636L150.898 422.395C150.37 421.727 149.477 421.467 148.673 421.747C147.869 422.027 147.33 422.785 147.33 423.636H149.33ZM149.33 415.738H147.33C147.33 416.593 147.874 417.353 148.683 417.63C149.492 417.907 150.387 417.639 150.911 416.964L149.33 415.738ZM149.33 410.326H151.33C151.33 409.221 150.435 408.326 149.33 408.326V410.326ZM146.536 410.326V408.326C145.432 408.326 144.536 409.221 144.536 410.326H146.536ZM146.536 425H144.536C144.536 426.105 145.432 427 146.536 427V425ZM151.33 421.59V417.828H147.33V421.59H151.33ZM151.002 418.925C150.999 418.93 151.075 418.831 151.277 418.728C151.472 418.627 151.645 418.596 151.728 418.596V414.596C150.909 414.596 150.114 414.829 149.452 415.168C148.796 415.505 148.123 416.022 147.658 416.731L151.002 418.925ZM151.728 418.596C151.993 418.596 152.108 418.681 152.182 418.766C152.278 418.876 152.434 419.154 152.434 419.698H156.434C156.434 418.394 156.052 417.121 155.202 416.142C154.33 415.138 153.092 414.596 151.728 414.596V418.596ZM152.434 419.698C152.434 420.241 152.279 420.509 152.189 420.612C152.12 420.69 152.005 420.778 151.728 420.778V424.778C153.08 424.778 154.318 424.25 155.195 423.25C156.051 422.275 156.434 421.003 156.434 419.698H152.434ZM151.728 420.778C151.63 420.778 151.447 420.744 151.25 420.646C151.158 420.601 151.086 420.553 151.036 420.513C150.984 420.47 150.974 420.451 150.986 420.468L147.675 422.712C148.148 423.411 148.827 423.911 149.479 424.233C150.14 424.559 150.925 424.778 151.728 424.778V420.778ZM151.33 425V423.636H147.33V425H151.33ZM147.762 424.877C148.961 426.391 150.695 427.264 152.608 427.264V423.264C151.97 423.264 151.372 422.993 150.898 422.395L147.762 424.877ZM152.608 427.264C154.479 427.264 156.216 426.545 157.465 425.136C158.699 423.745 159.316 421.845 159.316 419.698H155.316C155.316 421.093 154.921 421.976 154.473 422.482C154.039 422.971 153.422 423.264 152.608 423.264V427.264ZM159.316 419.698C159.316 417.582 158.704 415.685 157.485 414.287C156.249 412.868 154.513 412.11 152.608 412.11V416.11C153.41 416.11 154.028 416.408 154.469 416.914C154.928 417.441 155.316 418.338 155.316 419.698H159.316ZM152.608 412.11C150.742 412.11 148.968 412.942 147.75 414.512L150.911 416.964C151.365 416.378 151.967 416.11 152.608 416.11V412.11ZM151.33 415.738V410.326H147.33V415.738H151.33ZM149.33 408.326H146.536V412.326H149.33V408.326ZM144.536 410.326V425H148.536V410.326H144.536ZM146.536 427H149.33V423H146.536V427ZM168.799 423.79L170.15 425.264C170.884 424.592 171.012 423.483 170.451 422.662L168.799 423.79ZM167.567 421.986L169.219 420.858C168.886 420.371 168.356 420.056 167.769 419.996C167.183 419.937 166.6 420.139 166.176 420.549L167.567 421.986ZM161.671 420.578V418.578C161.095 418.578 160.547 418.826 160.168 419.259C159.788 419.692 159.613 420.267 159.688 420.838L161.671 420.578ZM169.569 420.578V422.578C170.674 422.578 171.569 421.683 171.569 420.578H169.569ZM166.863 418.686V420.686C167.416 420.686 167.944 420.457 168.323 420.053C168.701 419.65 168.895 419.108 168.859 418.556L166.863 418.686ZM161.627 418.686L159.642 418.438C159.571 419.007 159.748 419.58 160.128 420.01C160.507 420.44 161.053 420.686 161.627 420.686V418.686ZM164.421 427.264C166.404 427.264 168.618 426.669 170.15 425.264L167.448 422.316C166.868 422.847 165.738 423.264 164.421 423.264V427.264ZM170.451 422.662L169.219 420.858L165.915 423.114L167.147 424.918L170.451 422.662ZM166.176 420.549C166.106 420.617 165.904 420.755 165.562 420.877C165.229 420.995 164.917 421.042 164.729 421.042V425.042C165.443 425.042 166.209 424.891 166.899 424.646C167.58 424.405 168.346 424.015 168.958 423.423L166.176 420.549ZM164.729 421.042C164.256 421.042 164.015 420.903 163.9 420.802C163.775 420.694 163.682 420.535 163.654 420.318L159.688 420.838C159.997 423.196 161.942 425.042 164.729 425.042V421.042ZM161.671 422.578H169.569V418.578H161.671V422.578ZM171.569 420.578V419.962H167.569V420.578H171.569ZM171.569 419.962C171.569 417.813 170.898 415.843 169.575 414.387C168.237 412.916 166.356 412.11 164.245 412.11V416.11C165.302 416.11 166.083 416.492 166.615 417.078C167.162 417.679 167.569 418.635 167.569 419.962H171.569ZM164.245 412.11C159.839 412.11 156.745 415.56 156.745 419.676H160.745C160.745 417.632 162.183 416.11 164.245 416.11V412.11ZM156.745 419.676C156.745 421.88 157.546 423.815 158.988 425.194C160.418 426.562 162.352 427.264 164.421 427.264V423.264C163.256 423.264 162.352 422.877 161.753 422.304C161.165 421.741 160.745 420.882 160.745 419.676H156.745ZM166.863 416.686H161.627V420.686H166.863V416.686ZM163.612 418.934C163.637 418.734 163.72 418.561 163.804 418.468C163.839 418.431 163.875 418.404 163.921 418.384C163.967 418.364 164.065 418.332 164.245 418.332V414.332C162.822 414.332 161.666 414.887 160.863 415.758C160.107 416.578 159.749 417.582 159.642 418.438L163.612 418.934ZM164.245 418.332C164.461 418.332 164.577 418.37 164.629 418.393C164.68 418.415 164.711 418.439 164.735 418.466C164.799 418.538 164.858 418.676 164.867 418.816L168.859 418.556C168.802 417.684 168.476 416.645 167.71 415.793C166.895 414.886 165.705 414.332 164.245 414.332V418.332ZM174.381 425V427C175.486 427 176.381 426.105 176.381 425H174.381ZM174.381 417.982L172.725 416.86C172.501 417.191 172.381 417.582 172.381 417.982H174.381ZM177.769 416.838L177.335 418.79C177.928 418.922 178.547 418.778 179.021 418.398C179.494 418.018 179.769 417.445 179.769 416.838H177.769ZM177.769 414.11H179.769C179.769 413.005 178.874 412.11 177.769 412.11V414.11ZM174.381 415.826H172.381C172.381 416.677 172.92 417.436 173.725 417.715C174.529 417.995 175.422 417.734 175.95 417.066L174.381 415.826ZM174.381 414.374H176.381C176.381 413.269 175.486 412.374 174.381 412.374V414.374ZM171.587 414.374V412.374C170.483 412.374 169.587 413.269 169.587 414.374H171.587ZM171.587 425H169.587C169.587 426.105 170.483 427 171.587 427V425ZM176.381 425V417.982H172.381V425H176.381ZM176.037 419.104C175.995 419.166 175.983 419.159 176.051 419.108C176.114 419.062 176.211 419.002 176.34 418.944C176.619 418.818 176.877 418.772 176.999 418.772V414.772C176.197 414.772 175.377 414.99 174.694 415.298C174.039 415.594 173.246 416.092 172.725 416.86L176.037 419.104ZM176.999 418.772C177.107 418.772 177.193 418.776 177.256 418.781C177.322 418.787 177.345 418.793 177.335 418.79L178.203 414.886C177.806 414.797 177.38 414.772 176.999 414.772V418.772ZM179.769 416.838V414.11H175.769V416.838H179.769ZM177.769 412.11C175.738 412.11 173.873 413.244 172.812 414.586L175.95 417.066C176.385 416.516 177.161 416.11 177.769 416.11V412.11ZM176.381 415.826V414.374H172.381V415.826H176.381ZM174.381 412.374H171.587V416.374H174.381V412.374ZM169.587 414.374V425H173.587V414.374H169.587ZM171.587 427H174.381V423H171.587V427ZM191.04 424.582L192.373 426.072C192.942 425.564 193.172 424.775 192.965 424.041L191.04 424.582ZM190.446 422.47L192.371 421.929C192.179 421.245 191.639 420.715 190.951 420.535C190.264 420.355 189.534 420.554 189.032 421.056L190.446 422.47ZM188.51 416.816V414.816C187.405 414.816 186.51 415.711 186.51 416.816H188.51ZM190.666 416.816V418.816C191.77 418.816 192.666 417.921 192.666 416.816H190.666ZM190.666 414.374H192.666C192.666 413.269 191.77 412.374 190.666 412.374V414.374ZM188.51 414.374H186.51C186.51 415.479 187.405 416.374 188.51 416.374V414.374ZM188.51 411.47H190.51C190.51 410.365 189.614 409.47 188.51 409.47V411.47ZM185.694 411.47V409.47C184.589 409.47 183.694 410.365 183.694 411.47H185.694ZM185.694 414.374V416.374C186.798 416.374 187.694 415.479 187.694 414.374H185.694ZM183.934 414.374V412.374C182.829 412.374 181.934 413.269 181.934 414.374H183.934ZM183.934 416.816H181.934C181.934 417.921 182.829 418.816 183.934 418.816V416.816ZM185.694 416.816H187.694C187.694 415.711 186.798 414.816 185.694 414.816V416.816ZM188.708 427.264C190.201 427.264 191.482 426.87 192.373 426.072L189.706 423.092C189.762 423.042 189.547 423.264 188.708 423.264V427.264ZM192.965 424.041L192.371 421.929L188.521 423.011L189.115 425.123L192.965 424.041ZM189.032 421.056C189.165 420.923 189.279 420.856 189.321 420.833C189.373 420.804 189.407 420.792 189.419 420.787C189.439 420.781 189.452 420.778 189.478 420.778V424.778C189.922 424.778 190.342 424.698 190.702 424.576C191.017 424.47 191.478 424.267 191.86 423.884L189.032 421.056ZM189.478 420.778C189.603 420.778 189.766 420.805 189.936 420.888C190.106 420.97 190.239 421.085 190.333 421.203C190.511 421.429 190.51 421.609 190.51 421.612H186.51C186.51 422.275 186.685 423.038 187.193 423.682C187.74 424.375 188.562 424.778 189.478 424.778V420.778ZM190.51 421.612V416.816H186.51V421.612H190.51ZM188.51 418.816H190.666V414.816H188.51V418.816ZM192.666 416.816V414.374H188.666V416.816H192.666ZM190.666 412.374H188.51V416.374H190.666V412.374ZM190.51 414.374V411.47H186.51V414.374H190.51ZM188.51 409.47H185.694V413.47H188.51V409.47ZM183.694 411.47V414.374H187.694V411.47H183.694ZM185.694 412.374H183.934V416.374H185.694V412.374ZM181.934 414.374V416.816H185.934V414.374H181.934ZM183.934 418.816H185.694V414.816H183.934V418.816ZM183.694 416.816V422.36H187.694V416.816H183.694ZM183.694 422.36C183.694 423.672 184.067 424.988 185.08 425.963C186.08 426.925 187.404 427.264 188.708 427.264V423.264C188.054 423.264 187.871 423.097 187.853 423.08C187.849 423.076 187.694 422.94 187.694 422.36H183.694ZM197.505 427.264C199.775 427.264 201.719 426.428 203.09 424.987C204.446 423.563 205.137 421.656 205.137 419.676H201.137C201.137 420.732 200.773 421.619 200.192 422.23C199.627 422.824 198.756 423.264 197.505 423.264V427.264ZM205.137 419.676C205.137 417.703 204.443 415.802 203.089 414.382C201.718 412.946 199.775 412.11 197.505 412.11V416.11C198.756 416.11 199.629 416.55 200.194 417.143C200.776 417.753 201.137 418.635 201.137 419.676H205.137ZM197.505 412.11C192.81 412.11 189.895 415.653 189.895 419.676H193.895C193.895 417.671 195.205 416.11 197.505 416.11V412.11ZM189.895 419.676C189.895 421.656 190.587 423.561 191.938 424.985C193.304 426.426 195.243 427.264 197.505 427.264V423.264C196.27 423.264 195.404 422.826 194.84 422.232C194.26 421.621 193.895 420.732 193.895 419.676H189.895ZM197.505 420.778C197.351 420.778 197.262 420.748 197.212 420.724C197.161 420.7 197.108 420.661 197.054 420.595C196.937 420.45 196.799 420.146 196.799 419.676H192.799C192.799 420.878 193.145 422.125 193.947 423.113C194.784 424.146 196.03 424.778 197.505 424.778V420.778ZM196.799 419.676C196.799 419.222 196.934 418.924 197.051 418.78C197.105 418.714 197.158 418.675 197.21 418.65C197.261 418.626 197.351 418.596 197.505 418.596V414.596C196.031 414.596 194.786 415.227 193.95 416.254C193.148 417.238 192.799 418.48 192.799 419.676H196.799ZM197.505 418.596C197.66 418.596 197.753 418.626 197.808 418.652C197.865 418.679 197.921 418.721 197.978 418.789C198.099 418.936 198.233 419.233 198.233 419.676H202.233C202.233 418.469 201.873 417.226 201.064 416.245C200.223 415.225 198.977 414.596 197.505 414.596V418.596ZM198.233 419.676C198.233 420.136 198.096 420.438 197.975 420.585C197.918 420.654 197.862 420.696 197.807 420.722C197.752 420.748 197.66 420.778 197.505 420.778V424.778C198.978 424.778 200.226 424.148 201.067 423.123C201.876 422.137 202.233 420.888 202.233 419.676H198.233ZM219.991 423.328L221.621 424.487C222.203 423.668 222.088 422.545 221.351 421.862L219.991 423.328ZM218.165 421.634L219.525 420.168C219.105 419.778 218.537 419.587 217.966 419.644C217.395 419.701 216.876 420.001 216.541 420.467L218.165 421.634ZM218.165 417.74L216.509 418.861C216.837 419.346 217.362 419.663 217.944 419.728C218.526 419.793 219.108 419.599 219.535 419.197L218.165 417.74ZM219.991 416.024L221.361 417.481C222.095 416.791 222.201 415.663 221.609 414.848L219.991 416.024ZM215.789 427.264C218.629 427.264 220.55 425.993 221.621 424.487L218.361 422.169C218.024 422.643 217.306 423.264 215.789 423.264V427.264ZM221.351 421.862L219.525 420.168L216.805 423.1L218.631 424.794L221.351 421.862ZM216.541 420.467C216.393 420.673 216.215 420.778 215.921 420.778V424.778C217.563 424.778 218.925 424.003 219.789 422.801L216.541 420.467ZM215.921 420.778C215.59 420.778 215.411 420.667 215.306 420.555C215.192 420.432 215.039 420.169 215.039 419.676H211.039C211.039 421.031 211.48 422.319 212.383 423.285C213.296 424.262 214.558 424.778 215.921 424.778V420.778ZM215.039 419.676C215.039 419.184 215.191 418.93 215.299 418.816C215.4 418.709 215.579 418.596 215.921 418.596V414.596C214.569 414.596 213.307 415.099 212.39 416.07C211.481 417.034 211.039 418.32 211.039 419.676H215.039ZM215.921 418.596C216.273 418.596 216.401 418.701 216.509 418.861L219.822 416.619C218.918 415.283 217.505 414.596 215.921 414.596V418.596ZM219.535 419.197L221.361 417.481L218.621 414.567L216.795 416.283L219.535 419.197ZM221.609 414.848C220.54 413.379 218.627 412.11 215.789 412.11V416.11C217.307 416.11 218.034 416.733 218.374 417.2L221.609 414.848ZM215.789 412.11C211.433 412.11 208.157 415.289 208.157 419.676H212.157C212.157 417.551 213.589 416.11 215.789 416.11V412.11ZM208.157 419.676C208.157 424.079 211.428 427.264 215.789 427.264V423.264C213.595 423.264 212.157 421.829 212.157 419.676H208.157ZM231.806 425V427C232.91 427 233.806 426.105 233.806 425H231.806ZM224.612 415.76H222.612C222.612 416.601 223.138 417.352 223.928 417.64C224.719 417.927 225.605 417.689 226.145 417.044L224.612 415.76ZM224.612 410.326H226.612C226.612 409.221 225.716 408.326 224.612 408.326V410.326ZM221.818 410.326V408.326C220.713 408.326 219.818 409.221 219.818 410.326H221.818ZM221.818 425H219.818C219.818 426.105 220.713 427 221.818 427V425ZM224.612 425V427C225.716 427 226.612 426.105 226.612 425H224.612ZM224.612 417.85L223.018 416.641C222.754 416.989 222.612 417.413 222.612 417.85H224.612ZM229.012 425H227.012C227.012 426.105 227.907 427 229.012 427V425ZM233.806 425V417.454H229.806V425H233.806ZM233.806 417.454C233.806 416.072 233.426 414.662 232.374 413.599C231.317 412.532 229.873 412.11 228.352 412.11V416.11C229.162 416.11 229.445 416.326 229.532 416.414C229.624 416.506 229.806 416.768 229.806 417.454H233.806ZM228.352 412.11C225.964 412.11 224.102 413.254 223.079 414.476L226.145 417.044C226.485 416.638 227.263 416.11 228.352 416.11V412.11ZM226.612 415.76V410.326H222.612V415.76H226.612ZM224.612 408.326H221.818V412.326H224.612V408.326ZM219.818 410.326V425H223.818V410.326H219.818ZM221.818 427H224.612V423H221.818V427ZM226.612 425V417.85H222.612V425H226.612ZM226.205 419.059C226.298 418.937 226.434 418.81 226.59 418.721C226.738 418.637 226.884 418.596 227.032 418.596V414.596C225.167 414.596 223.771 415.649 223.018 416.641L226.205 419.059ZM227.032 418.596C227.12 418.596 227.188 418.6 227.239 418.606C227.289 418.612 227.316 418.618 227.323 418.62C227.33 418.622 227.314 418.618 227.283 418.603C227.251 418.586 227.208 418.559 227.161 418.519C227.114 418.477 227.074 418.431 227.043 418.385C227.013 418.34 226.998 418.305 226.993 418.291C226.988 418.278 226.993 418.287 226.999 418.327C227.005 418.367 227.012 418.434 227.012 418.532H231.012C231.012 417.466 230.727 416.321 229.79 415.504C228.91 414.737 227.828 414.596 227.032 414.596V418.596ZM227.012 418.532V425H231.012V418.532H227.012ZM229.012 427H231.806V423H229.012V427ZM243.753 425V427C244.858 427 245.753 426.105 245.753 425H243.753ZM234.469 415.782L233.147 414.282C232.438 414.907 232.263 415.942 232.728 416.765L234.469 415.782ZM235.525 417.652L233.784 418.635C234.085 419.168 234.613 419.534 235.217 419.628C235.822 419.722 236.436 419.535 236.885 419.119L235.525 417.652ZM240.959 419.61L239.43 420.898C239.971 421.541 240.856 421.777 241.645 421.489C242.434 421.201 242.959 420.45 242.959 419.61H240.959ZM240.959 423.9H242.959C242.959 423.061 242.435 422.311 241.647 422.022C240.859 421.733 239.975 421.967 239.433 422.608L240.959 423.9ZM240.959 425H238.959C238.959 426.105 239.855 427 240.959 427V425ZM240.959 421.128H242.959C242.959 420.695 242.819 420.274 242.559 419.928L240.959 421.128ZM240.959 422.448L242.559 423.648C242.819 423.302 242.959 422.881 242.959 422.448H240.959ZM245.753 425V418.136H241.753V425H245.753ZM245.753 418.136C245.753 416.058 244.961 414.41 243.517 413.359C242.18 412.387 240.537 412.11 239.111 412.11V416.11C240.106 416.11 240.784 416.317 241.163 416.593C241.435 416.791 241.753 417.156 241.753 418.136H245.753ZM239.111 412.11C237.029 412.11 234.864 412.768 233.147 414.282L235.792 417.282C236.671 416.508 237.85 416.11 239.111 416.11V412.11ZM232.728 416.765L233.784 418.635L237.267 416.669L236.211 414.799L232.728 416.765ZM236.885 419.119C237.435 418.609 238.012 418.398 238.627 418.398V414.398C236.955 414.398 235.419 415.023 234.166 416.185L236.885 419.119ZM238.627 418.398C238.815 418.398 238.946 418.422 239.027 418.445C239.107 418.469 239.126 418.488 239.108 418.474C239.086 418.458 239.041 418.415 239.004 418.34C238.966 418.264 238.959 418.202 238.959 418.18H242.959C242.959 417.007 242.429 415.978 241.535 415.295C240.69 414.65 239.642 414.398 238.627 414.398V418.398ZM238.959 418.18V419.61H242.959V418.18H238.959ZM242.489 418.322C241.28 416.886 239.365 416.312 237.593 416.312V420.312C238.638 420.312 239.23 420.662 239.43 420.898L242.489 418.322ZM237.593 416.312C236.414 416.312 235.031 416.635 233.892 417.51C232.679 418.442 231.897 419.89 231.897 421.744H235.897C235.897 421.112 236.117 420.844 236.329 420.682C236.614 420.462 237.078 420.312 237.593 420.312V416.312ZM231.897 421.744C231.897 423.559 232.688 424.997 233.843 425.943C234.948 426.846 236.331 427.264 237.593 427.264V423.264C237.161 423.264 236.697 423.11 236.377 422.847C236.107 422.627 235.897 422.305 235.897 421.744H231.897ZM237.593 427.264C239.414 427.264 241.291 426.604 242.486 425.192L239.433 422.608C239.176 422.912 238.545 423.264 237.593 423.264V427.264ZM238.959 423.9V425H242.959V423.9H238.959ZM240.959 427H243.753V423H240.959V427ZM238.715 421.372C238.611 421.372 238.537 421.358 238.493 421.346C238.449 421.333 238.453 421.326 238.486 421.351C238.522 421.377 238.587 421.437 238.64 421.538C238.696 421.644 238.713 421.745 238.713 421.81H234.713C234.713 422.991 235.283 423.961 236.118 424.574C236.9 425.149 237.845 425.372 238.715 425.372V421.372ZM238.713 421.81C238.713 421.85 238.703 421.935 238.652 422.033C238.603 422.129 238.542 422.189 238.502 422.219C238.466 422.246 238.458 422.241 238.498 422.23C238.539 422.218 238.611 422.204 238.715 422.204V418.204C237.845 418.204 236.892 418.427 236.102 419.019C235.257 419.653 234.713 420.637 234.713 421.81H238.713ZM238.715 422.204C238.948 422.204 239.141 422.245 239.269 422.296C239.399 422.347 239.399 422.381 239.359 422.328L242.559 419.928C241.576 418.617 239.962 418.204 238.715 418.204V422.204ZM238.959 421.128V422.448H242.959V421.128H238.959ZM239.359 421.248C239.399 421.195 239.399 421.229 239.269 421.28C239.141 421.331 238.948 421.372 238.715 421.372V425.372C239.962 425.372 241.576 424.959 242.559 423.648L239.359 421.248ZM256.491 425V427C257.595 427 258.491 426.105 258.491 425H256.491ZM249.319 415.76H247.319C247.319 416.601 247.845 417.352 248.635 417.64C249.426 417.927 250.312 417.689 250.852 417.044L249.319 415.76ZM249.319 414.374H251.319C251.319 413.269 250.423 412.374 249.319 412.374V414.374ZM246.525 414.374V412.374C245.42 412.374 244.525 413.269 244.525 414.374H246.525ZM246.525 425H244.525C244.525 426.105 245.42 427 246.525 427V425ZM249.319 425V427C250.423 427 251.319 426.105 251.319 425H249.319ZM249.319 417.85L247.699 416.677C247.452 417.018 247.319 417.429 247.319 417.85H249.319ZM253.697 425H251.697C251.697 426.105 252.592 427 253.697 427V425ZM258.491 425V417.498H254.491V425H258.491ZM258.491 417.498C258.491 416.117 258.112 414.705 257.072 413.635C256.022 412.554 254.577 412.11 253.037 412.11V416.11C253.829 416.11 254.11 416.326 254.204 416.422C254.308 416.529 254.491 416.811 254.491 417.498H258.491ZM253.037 412.11C250.64 412.11 248.802 413.262 247.786 414.476L250.852 417.044C251.199 416.63 251.958 416.11 253.037 416.11V412.11ZM251.319 415.76V414.374H247.319V415.76H251.319ZM249.319 412.374H246.525V416.374H249.319V412.374ZM244.525 414.374V425H248.525V414.374H244.525ZM246.525 427H249.319V423H246.525V427ZM251.319 425V417.85H247.319V425H251.319ZM250.939 419.023C251.11 418.787 251.413 418.596 251.739 418.596V414.596C249.865 414.596 248.452 415.637 247.699 416.677L250.939 419.023ZM251.739 418.596C251.817 418.596 251.876 418.6 251.918 418.605C251.959 418.611 251.979 418.616 251.981 418.617C251.982 418.617 251.963 418.612 251.932 418.595C251.899 418.577 251.858 418.55 251.816 418.512C251.795 418.493 251.776 418.473 251.758 418.452C251.741 418.431 251.726 418.41 251.713 418.391C251.688 418.352 251.677 418.324 251.674 418.316C251.671 418.309 251.677 418.323 251.684 418.366C251.69 418.41 251.697 418.478 251.697 418.576H255.697C255.697 417.509 255.412 416.377 254.51 415.555C253.644 414.766 252.568 414.596 251.739 414.596V418.596ZM251.697 418.576V425H255.697V418.576H251.697ZM253.697 427H256.491V423H253.697V427ZM269.363 414.374H271.363C271.363 413.269 270.467 412.374 269.363 412.374V414.374ZM266.547 414.374V412.374C265.442 412.374 264.547 413.269 264.547 414.374H266.547ZM266.547 415.738L264.982 416.983C265.512 417.649 266.404 417.907 267.207 417.626C268.009 417.346 268.547 416.588 268.547 415.738H266.547ZM266.547 423.262H268.547C268.547 422.411 268.008 421.653 267.204 421.373C266.4 421.093 265.507 421.353 264.979 422.021L266.547 423.262ZM260.299 425.704L261.78 424.36C261.358 423.895 260.743 423.655 260.117 423.712C259.492 423.769 258.93 424.117 258.599 424.651L260.299 425.704ZM259.045 427.728L257.345 426.675C256.828 427.509 256.993 428.594 257.733 429.238L259.045 427.728ZM266.547 417.806H268.547C268.547 417.416 268.433 417.035 268.219 416.709L266.547 417.806ZM266.547 421.238L268.203 422.36C268.427 422.029 268.547 421.638 268.547 421.238H266.547ZM263.621 431.312C265.125 431.312 267.021 431.037 268.598 429.965C270.303 428.806 271.363 426.899 271.363 424.274H267.363C267.363 425.697 266.861 426.309 266.349 426.657C265.71 427.092 264.735 427.312 263.621 427.312V431.312ZM271.363 424.274V414.374H267.363V424.274H271.363ZM269.363 412.374H266.547V416.374H269.363V412.374ZM264.547 414.374V415.738H268.547V414.374H264.547ZM268.112 414.493C266.89 412.957 265.179 412.11 263.269 412.11V416.11C263.911 416.11 264.488 416.363 264.982 416.983L268.112 414.493ZM263.269 412.11C261.426 412.11 259.695 412.787 258.44 414.166C257.198 415.532 256.583 417.404 256.583 419.522H260.583C260.583 418.164 260.969 417.33 261.398 416.859C261.815 416.401 262.428 416.11 263.269 416.11V412.11ZM256.583 419.522C256.583 421.671 257.202 423.55 258.457 424.912C259.722 426.285 261.454 426.934 263.269 426.934V422.934C262.422 422.934 261.811 422.648 261.398 422.201C260.976 421.742 260.583 420.915 260.583 419.522H256.583ZM263.269 426.934C265.256 426.934 266.95 425.974 268.115 424.503L264.979 422.021C264.471 422.662 263.878 422.934 263.269 422.934V426.934ZM264.547 423.262V424.34H268.547V423.262H264.547ZM264.547 424.34C264.547 424.607 264.498 424.73 264.479 424.769C264.462 424.803 264.445 424.823 264.411 424.848C264.309 424.922 264.047 425.024 263.621 425.024V429.024C264.537 429.024 265.738 428.829 266.763 428.084C267.891 427.263 268.547 425.965 268.547 424.34H264.547ZM263.621 425.024C262.68 425.024 262.162 424.781 261.78 424.36L258.817 427.048C260.152 428.519 261.878 429.024 263.621 429.024V425.024ZM258.599 424.651L257.345 426.675L260.745 428.781L261.999 426.757L258.599 424.651ZM257.733 429.238C259.51 430.782 261.417 431.312 263.621 431.312V427.312C262.173 427.312 261.263 427.006 260.357 426.218L257.733 429.238ZM264.149 420.448C263.836 420.448 263.718 420.351 263.67 420.3C263.613 420.239 263.465 420.033 263.465 419.522H259.465C259.465 420.837 259.867 422.094 260.756 423.039C261.653 423.995 262.877 424.448 264.149 424.448V420.448ZM263.465 419.522C263.465 419.011 263.613 418.805 263.67 418.744C263.718 418.693 263.836 418.596 264.149 418.596V414.596C262.877 414.596 261.653 415.049 260.756 416.005C259.867 416.95 259.465 418.207 259.465 419.522H263.465ZM264.149 418.596C264.262 418.596 264.441 418.632 264.622 418.724C264.811 418.819 264.879 418.909 264.875 418.903L268.219 416.709C267.341 415.37 265.657 414.596 264.149 414.596V418.596ZM264.547 417.806V421.238H268.547V417.806H264.547ZM264.891 420.116C264.896 420.109 264.88 420.134 264.826 420.179C264.774 420.223 264.702 420.272 264.613 420.317C264.422 420.414 264.248 420.448 264.149 420.448V424.448C265.686 424.448 267.341 423.631 268.203 422.36L264.891 420.116ZM281.506 423.79L282.857 425.264C283.591 424.592 283.719 423.483 283.158 422.662L281.506 423.79ZM280.274 421.986L281.926 420.858C281.593 420.371 281.063 420.056 280.476 419.996C279.89 419.937 279.307 420.139 278.883 420.549L280.274 421.986ZM274.378 420.578V418.578C273.802 418.578 273.254 418.826 272.875 419.259C272.495 419.692 272.32 420.267 272.395 420.838L274.378 420.578ZM282.276 420.578V422.578C283.381 422.578 284.276 421.683 284.276 420.578H282.276ZM279.57 418.686V420.686C280.123 420.686 280.651 420.457 281.03 420.053C281.408 419.65 281.602 419.108 281.566 418.556L279.57 418.686ZM274.334 418.686L272.349 418.438C272.278 419.007 272.455 419.58 272.835 420.01C273.214 420.44 273.76 420.686 274.334 420.686V418.686ZM277.128 427.264C279.111 427.264 281.325 426.669 282.857 425.264L280.155 422.316C279.575 422.847 278.445 423.264 277.128 423.264V427.264ZM283.158 422.662L281.926 420.858L278.622 423.114L279.854 424.918L283.158 422.662ZM278.883 420.549C278.813 420.617 278.611 420.755 278.269 420.877C277.936 420.995 277.624 421.042 277.436 421.042V425.042C278.15 425.042 278.916 424.891 279.606 424.646C280.287 424.405 281.053 424.015 281.665 423.423L278.883 420.549ZM277.436 421.042C276.963 421.042 276.722 420.903 276.607 420.802C276.482 420.694 276.389 420.535 276.361 420.318L272.395 420.838C272.704 423.196 274.649 425.042 277.436 425.042V421.042ZM274.378 422.578H282.276V418.578H274.378V422.578ZM284.276 420.578V419.962H280.276V420.578H284.276ZM284.276 419.962C284.276 417.813 283.605 415.843 282.282 414.387C280.944 412.916 279.063 412.11 276.952 412.11V416.11C278.009 416.11 278.79 416.492 279.322 417.078C279.869 417.679 280.276 418.635 280.276 419.962H284.276ZM276.952 412.11C272.546 412.11 269.452 415.56 269.452 419.676H273.452C273.452 417.632 274.89 416.11 276.952 416.11V412.11ZM269.452 419.676C269.452 421.88 270.253 423.815 271.695 425.194C273.125 426.562 275.059 427.264 277.128 427.264V423.264C275.963 423.264 275.059 422.877 274.46 422.304C273.872 421.741 273.452 420.882 273.452 419.676H269.452ZM279.57 416.686H274.334V420.686H279.57V416.686ZM276.319 418.934C276.344 418.734 276.427 418.561 276.511 418.468C276.546 418.431 276.582 418.404 276.628 418.384C276.674 418.364 276.772 418.332 276.952 418.332V414.332C275.529 414.332 274.373 414.887 273.57 415.758C272.814 416.578 272.456 417.582 272.349 418.438L276.319 418.934ZM276.952 418.332C277.168 418.332 277.284 418.37 277.336 418.393C277.387 418.415 277.418 418.439 277.442 418.466C277.506 418.538 277.565 418.676 277.574 418.816L281.566 418.556C281.509 417.684 281.183 416.645 280.417 415.793C279.602 414.886 278.412 414.332 276.952 414.332V418.332ZM292.717 425V427C293.822 427 294.717 426.105 294.717 425H292.717ZM292.717 414.374H294.717C294.717 413.269 293.822 412.374 292.717 412.374V414.374ZM289.923 414.374V412.374C288.819 412.374 287.923 413.269 287.923 414.374H289.923ZM289.923 425H287.923C287.923 426.105 288.819 427 289.923 427V425ZM291.309 415.23C293.338 415.23 294.981 413.587 294.981 411.558H290.981C290.981 411.377 291.129 411.23 291.309 411.23V415.23ZM294.981 411.558C294.981 409.495 293.303 407.908 291.309 407.908V411.908C291.238 411.908 291.156 411.878 291.09 411.814C291.023 411.748 290.981 411.651 290.981 411.558H294.981ZM291.309 407.908C289.355 407.908 287.637 409.478 287.637 411.558H291.637C291.637 411.668 291.587 411.764 291.53 411.82C291.476 411.872 291.399 411.908 291.309 411.908V407.908ZM287.637 411.558C287.637 413.604 289.32 415.23 291.309 415.23V411.23C291.418 411.23 291.497 411.275 291.543 411.32C291.591 411.368 291.637 411.452 291.637 411.558H287.637ZM294.717 425V414.374H290.717V425H294.717ZM292.717 412.374H289.923V416.374H292.717V412.374ZM287.923 414.374V425H291.923V414.374H287.923ZM289.923 427H292.717V423H289.923V427ZM301.384 424.582L302.717 426.072C303.286 425.564 303.516 424.775 303.309 424.041L301.384 424.582ZM300.79 422.47L302.715 421.929C302.523 421.245 301.982 420.715 301.295 420.535C300.608 420.355 299.877 420.554 299.375 421.056L300.79 422.47ZM298.854 416.816V414.816C297.749 414.816 296.854 415.711 296.854 416.816H298.854ZM301.01 416.816V418.816C302.114 418.816 303.01 417.921 303.01 416.816H301.01ZM301.01 414.374H303.01C303.01 413.269 302.114 412.374 301.01 412.374V414.374ZM298.854 414.374H296.854C296.854 415.479 297.749 416.374 298.854 416.374V414.374ZM298.854 411.47H300.854C300.854 410.365 299.958 409.47 298.854 409.47V411.47ZM296.038 411.47V409.47C294.933 409.47 294.038 410.365 294.038 411.47H296.038ZM296.038 414.374V416.374C297.142 416.374 298.038 415.479 298.038 414.374H296.038ZM294.278 414.374V412.374C293.173 412.374 292.278 413.269 292.278 414.374H294.278ZM294.278 416.816H292.278C292.278 417.921 293.173 418.816 294.278 418.816V416.816ZM296.038 416.816H298.038C298.038 415.711 297.142 414.816 296.038 414.816V416.816ZM299.052 427.264C300.545 427.264 301.826 426.87 302.717 426.072L300.05 423.092C300.105 423.042 299.89 423.264 299.052 423.264V427.264ZM303.309 424.041L302.715 421.929L298.864 423.011L299.458 425.123L303.309 424.041ZM299.375 421.056C299.508 420.923 299.623 420.856 299.665 420.833C299.717 420.804 299.751 420.792 299.763 420.787C299.782 420.781 299.795 420.778 299.822 420.778V424.778C300.266 424.778 300.686 424.698 301.046 424.576C301.361 424.47 301.821 424.267 302.204 423.884L299.375 421.056ZM299.822 420.778C299.947 420.778 300.109 420.805 300.28 420.888C300.45 420.97 300.583 421.085 300.676 421.203C300.854 421.429 300.854 421.609 300.854 421.612H296.854C296.854 422.275 297.029 423.038 297.537 423.682C298.084 424.375 298.906 424.778 299.822 424.778V420.778ZM300.854 421.612V416.816H296.854V421.612H300.854ZM298.854 418.816H301.01V414.816H298.854V418.816ZM303.01 416.816V414.374H299.01V416.816H303.01ZM301.01 412.374H298.854V416.374H301.01V412.374ZM300.854 414.374V411.47H296.854V414.374H300.854ZM298.854 409.47H296.038V413.47H298.854V409.47ZM294.038 411.47V414.374H298.038V411.47H294.038ZM296.038 412.374H294.278V416.374H296.038V412.374ZM292.278 414.374V416.816H296.278V414.374H292.278ZM294.278 418.816H296.038V414.816H294.278V418.816ZM294.038 416.816V422.36H298.038V416.816H294.038ZM294.038 422.36C294.038 423.672 294.411 424.988 295.424 425.963C296.424 426.925 297.748 427.264 299.052 427.264V423.264C298.397 423.264 298.214 423.097 298.197 423.08C298.192 423.076 298.038 422.94 298.038 422.36H294.038Z" fill="#1B0D12"/>
<defs>
<filter id="filter0_d_2_220" x="4.98872" y="3" width="308.683" height="430.812" filterUnits="userSpaceOnUse" color-interpolation-filters="sRGB">
<feFlood flood-opacity="0" result="BackgroundImageFix"/>
<feColorMatrix in="SourceAlpha" type="matrix" values="0 0 0 0 0 0 0 0 0 0 0 0 0 0 0 0 0 0 127 0" result="hardAlpha"/>
<feOffset dx="-5" dy="9"/>
<feComposite in2="hardAlpha" operator="out"/>
<feColorMatrix type="matrix" values="0 0 0 0 0 0 0 0 0 0 0 0 0 0 0 0 0 0 1 0"/>
<feBlend mode="normal" in2="BackgroundImageFix" result="effect1_dropShadow_2_220"/>
<feBlend mode="normal" in="SourceGraphic" in2="effect1_dropShadow_2_220" result="shape"/>
</filter>
</defs>
</svg>
