<svg width="270" height="119" viewBox="0 0 270 119" fill="none" xmlns="http://www.w3.org/2000/svg">
<g filter="url(#filter0_d_2_224)">
<path d="M66.8445 106.832L3 44.627C26.8843 57.068 63.17 52.4602 86.1356 48.774C109.101 45.0877 131.148 30.3428 154.573 19.2841C173.313 10.4372 188.715 6.07515 194.074 5L257 57.5288C244.752 56.1464 215.019 55.2249 194.074 62.5973C167.893 71.8129 137.579 96.2342 114.154 103.607C95.4137 109.505 74.8059 108.214 66.8445 106.832Z" fill="#FFC900"/>
<path d="M3.92394 42.8532L1.6043 46.0594L65.4488 108.265L65.8923 108.697L66.5023 108.803C74.6677 110.22 95.6178 111.537 114.754 105.514C126.736 101.743 140.39 93.6517 154.101 85.513L154.32 85.3832C168.079 77.2161 181.941 68.9884 194.738 64.4839C215.248 57.2644 244.614 58.1436 256.776 59.5161L263.397 60.2634L258.282 55.9934L195.356 3.46464L194.62 2.85058L193.681 3.03908C188.143 4.15016 172.586 8.56864 153.719 17.4755C147.822 20.2597 142.019 23.272 136.299 26.2671C135.695 26.5837 135.091 26.9 134.488 27.2159C129.378 29.8941 124.335 32.5375 119.304 34.9969C108.048 40.4995 97.0066 45.0035 85.8187 46.7992C74.358 48.6388 59.6707 50.6912 44.9046 50.7482C30.1061 50.8053 15.4446 48.8541 3.92394 42.8532Z" stroke="#171914" stroke-width="4"/>
</g>
<defs>
<filter id="filter0_d_2_224" x="0.208588" y="0.701157" width="269.585" height="118.299" filterUnits="userSpaceOnUse" color-interpolation-filters="sRGB">
<feFlood flood-opacity="0" result="BackgroundImageFix"/>
<feColorMatrix in="SourceAlpha" type="matrix" values="0 0 0 0 0 0 0 0 0 0 0 0 0 0 0 0 0 0 127 0" result="hardAlpha"/>
<feOffset dy="7"/>
<feComposite in2="hardAlpha" operator="out"/>
<feColorMatrix type="matrix" values="0 0 0 0 0 0 0 0 0 0 0 0 0 0 0 0 0 0 1 0"/>
<feBlend mode="normal" in2="BackgroundImageFix" result="effect1_dropShadow_2_224"/>
<feBlend mode="normal" in="SourceGraphic" in2="effect1_dropShadow_2_224" result="shape"/>
</filter>
</defs>
</svg>
