<svg width="248" height="54" viewBox="0 0 248 54" fill="none" xmlns="http://www.w3.org/2000/svg">
<mask id="path-1-outside-1_196_65" maskUnits="userSpaceOnUse" x="-0.0422363" y="-0.0253906" width="248" height="54" fill="black">
<rect fill="white" x="-0.0422363" y="-0.0253906" width="248" height="54"/>
<path d="M19.4011 37.7715L17.239 45.5234C16.4304 45.6289 15.4812 45.752 14.3914 45.8926C13.3367 46.0332 12.282 46.1738 11.2273 46.3145C10.1726 46.4199 9.08276 46.543 7.95776 46.6836C9.39917 41.9023 10.6121 37.8594 11.5964 34.5547C12.616 31.25 13.4421 28.543 14.075 26.4336C14.7078 24.2891 15.323 22.1797 15.9207 20.1055C16.5535 17.9961 17.1511 15.9746 17.7136 14.041C18.3113 12.0723 18.8386 10.2793 19.2957 8.66211C25.7996 8.20508 30.7566 7.64258 34.1667 6.97461C33.8503 10.4551 33.5867 14.5684 33.3757 19.3145C32.9187 28.7715 32.532 37.4902 32.2156 45.4707C31.1609 45.6465 30.1238 45.8047 29.1042 45.9453C28.1199 46.0859 27.0828 46.2441 25.9929 46.4199C24.9382 46.5957 23.9714 46.7539 23.0925 46.8945C23.4792 43.5195 23.8132 40.4785 24.0945 37.7715H19.4011ZM20.6667 32.3926L24.5691 32.1289C24.5691 31.918 24.5867 31.5664 24.6218 31.0742C24.6921 30.5469 24.7625 29.9492 24.8328 29.2812C25.114 25.5195 25.4128 22.0215 25.7292 18.7871L26.0984 14.0938L25.2546 14.1465L20.6667 32.3926Z"/>
<path d="M35.3923 47.4746C37.0095 30.916 37.9235 17.6797 38.1345 7.76562C40.736 7.76562 43.2497 7.66016 45.6755 7.44922L46.5192 7.34375C46.1325 11.5273 45.7985 14.9727 45.5173 17.6797C45.236 20.3516 45.0075 22.5312 44.8317 24.2188C44.6911 25.8711 44.5505 27.4707 44.4099 29.0176C44.1638 31.6543 43.9001 34.2207 43.6189 36.7168H44.6208L50.6325 8.0293C51.6169 7.99414 52.5837 7.94141 53.5329 7.87109C54.4821 7.80078 55.4489 7.74805 56.4333 7.71289C57.4177 7.64258 58.3317 7.55469 59.1755 7.44922C57.6638 12.3359 56.3454 17.0117 55.2204 21.4766C54.1306 25.9062 53.1638 29.7734 52.32 33.0781C51.5114 36.3828 50.5446 40.4785 49.4196 45.3652L35.3923 47.4746Z"/>
<path d="M63.1432 37.7715L60.9811 45.5234C60.1725 45.6289 59.2233 45.752 58.1335 45.8926C57.0788 46.0332 56.0241 46.1738 54.9694 46.3145C53.9147 46.4199 52.8249 46.543 51.6999 46.6836C53.1413 41.9023 54.3542 37.8594 55.3385 34.5547C56.3581 31.25 57.1842 28.543 57.8171 26.4336C58.4499 24.2891 59.0651 22.1797 59.6628 20.1055C60.2956 17.9961 60.8932 15.9746 61.4557 14.041C62.0534 12.0723 62.5807 10.2793 63.0378 8.66211C69.5417 8.20508 74.4987 7.64258 77.9089 6.97461C77.5925 10.4551 77.3288 14.5684 77.1178 19.3145C76.6608 28.7715 76.2741 37.4902 75.9577 45.4707C74.903 45.6465 73.8659 45.8047 72.8464 45.9453C71.862 46.0859 70.8249 46.2441 69.735 46.4199C68.6803 46.5957 67.7135 46.7539 66.8346 46.8945C67.2214 43.5195 67.5553 40.4785 67.8366 37.7715H63.1432ZM64.4089 32.3926L68.3112 32.1289C68.3112 31.918 68.3288 31.5664 68.3639 31.0742C68.4342 30.5469 68.5046 29.9492 68.5749 29.2812C68.8561 25.5195 69.155 22.0215 69.4714 18.7871L69.8405 14.0938L68.9967 14.1465L64.4089 32.3926Z"/>
<path d="M96.2203 19.4199C96.3961 18.7168 96.484 17.9785 96.484 17.2051C96.484 16.4316 96.2907 15.8164 95.9039 15.3594C95.5172 14.8672 95.0953 14.6211 94.6383 14.6211C94.2164 14.6211 93.7946 14.7266 93.3727 14.9375C92.9508 15.1484 92.5289 15.4297 92.1071 15.7812C91.1227 16.5898 90.6305 17.4688 90.6305 18.418C90.6305 19.332 90.8766 20.0879 91.3688 20.6855C91.861 21.248 92.4586 21.7754 93.1618 22.2676C93.9 22.7598 94.691 23.2695 95.5348 23.7969C96.3785 24.3242 97.1696 24.9922 97.9078 25.8008C99.5953 27.7695 100.439 30.3887 100.439 33.6582C100.439 37.5957 98.9977 40.8477 96.1149 43.4141C93.3727 45.875 89.9098 47.1055 85.7262 47.1055C82.6325 47.1055 79.8024 45.4883 77.236 42.2539L81.2438 34.3965C81.736 35.3809 82.6852 36.2773 84.0914 37.0859C85.4977 37.9297 86.5524 38.3516 87.2555 38.3516C87.9586 38.3516 88.5387 38.2812 88.9957 38.1406C89.4879 38 89.9274 37.7891 90.3141 37.5078C91.193 36.875 91.6325 36.1191 91.6325 35.2402C91.6325 34.3262 91.3512 33.5 90.7887 32.7617C90.2262 32.0234 89.5231 31.3203 88.6793 30.6523C87.8707 29.9844 86.9743 29.3164 85.9899 28.6484C85.0407 27.9453 84.1618 27.207 83.3532 26.4336C81.3844 24.6758 80.4 22.8301 80.4 20.8965C80.4 18.9629 80.945 17.1875 82.0348 15.5703C83.1598 13.9531 84.5485 12.5645 86.2008 11.4043C87.8883 10.209 89.7164 9.27734 91.6852 8.60938C93.6891 7.90625 95.3766 7.55469 96.7477 7.55469C98.1188 7.55469 99.2262 7.67773 100.07 7.92383C100.949 8.16992 101.705 8.53906 102.338 9.03125C103.709 10.1562 104.394 11.8086 104.394 13.9883C104.394 14.5156 104.341 15.0254 104.236 15.5176C104.166 16.0098 104.095 16.5547 104.025 17.1523L96.2203 19.4199Z"/>
<path d="M112.159 38.0352C113.038 38.0352 113.969 37.4902 114.954 36.4004C115.938 35.2754 116.571 34.1152 116.852 32.9199L123.022 35.3984C121.44 39.0898 119.366 42.0254 116.799 44.2051C114.514 46.1387 112.176 47.1055 109.786 47.1055C107.536 47.1055 105.708 46.0859 104.301 44.0469C102.825 41.8672 102.087 39.002 102.087 35.4512C102.087 31.9004 102.544 28.4727 103.458 25.168C104.407 21.8633 105.725 18.9102 107.413 16.3086C109.1 13.6719 111.104 11.5449 113.424 9.92773C115.78 8.31055 118.346 7.50195 121.124 7.50195C122.917 7.50195 124.446 8.1875 125.712 9.55859C126.942 10.9648 127.557 12.8105 127.557 15.0957V15.7812C127.557 15.9922 127.54 16.2207 127.504 16.4668L120.438 18.3652C120.016 17.4863 119.506 17.0469 118.909 17.0469C118.346 17.0469 117.749 17.3809 117.116 18.0488C116.483 18.7168 115.85 19.5781 115.217 20.6328C114.62 21.6875 114.04 22.8828 113.477 24.2188C112.915 25.5195 112.422 26.8379 112.001 28.1738C111.016 31.127 110.524 33.5176 110.524 35.3457C110.524 37.1387 111.069 38.0352 112.159 38.0352Z"/>
<path d="M139.33 46.1562C136.623 36.5938 135.216 31.1621 135.111 29.8613L134.425 30.0723C133.265 36.541 132.404 41.4453 131.841 44.7852L123.087 47.0527C126.744 29.3691 128.976 16.8184 129.785 9.40039C133.863 8.13477 138.433 7.50195 143.496 7.50195C147.293 7.50195 149.543 8.82031 150.246 11.457C150.457 12.2656 150.562 13.2676 150.562 14.4629C150.562 15.6582 150.316 16.959 149.824 18.3652C149.332 19.7363 148.664 21.0547 147.82 22.3203C146.062 24.8867 143.9 26.8555 141.334 28.2266C142.705 31.1797 143.918 33.9746 144.972 36.6113C146.062 39.2129 146.976 41.4102 147.714 43.2031L139.33 46.1562ZM139.857 14.9902L137.537 15.043L135.796 23.6387C137.203 23.498 138.978 22.6016 141.123 20.9492C143.337 19.2617 144.445 17.873 144.445 16.7832C144.445 15.7637 143.478 15.1836 141.544 15.043C140.982 15.0078 140.419 14.9902 139.857 14.9902Z"/>
<path d="M157.694 37.7715L155.532 45.5234C154.723 45.6289 153.774 45.752 152.684 45.8926C151.629 46.0332 150.575 46.1738 149.52 46.3145C148.465 46.4199 147.375 46.543 146.25 46.6836C147.692 41.9023 148.905 37.8594 149.889 34.5547C150.909 31.25 151.735 28.543 152.368 26.4336C153 24.2891 153.616 22.1797 154.213 20.1055C154.846 17.9961 155.444 15.9746 156.006 14.041C156.604 12.0723 157.131 10.2793 157.588 8.66211C164.092 8.20508 169.049 7.64258 172.459 6.97461C172.143 10.4551 171.879 14.5684 171.668 19.3145C171.211 28.7715 170.825 37.4902 170.508 45.4707C169.454 45.6465 168.417 45.8047 167.397 45.9453C166.413 46.0859 165.375 46.2441 164.286 46.4199C163.231 46.5957 162.264 46.7539 161.385 46.8945C161.772 43.5195 162.106 40.4785 162.387 37.7715H157.694ZM158.959 32.3926L162.862 32.1289C162.862 31.918 162.879 31.5664 162.915 31.0742C162.985 30.5469 163.055 29.9492 163.125 29.2812C163.407 25.5195 163.706 22.0215 164.022 18.7871L164.391 14.0938L163.547 14.1465L158.959 32.3926Z"/>
<path d="M174.845 15.2539L175.109 8.3457C176.937 8.48633 178.783 8.55664 180.646 8.55664C185.568 8.55664 190.367 8.25781 195.042 7.66016L194.462 10.5605C194.287 11.3691 194.111 12.2129 193.935 13.0918C193.794 13.9355 193.654 14.6738 193.513 15.3066C192.705 15.5176 191.896 15.6758 191.087 15.7812C190.279 15.8516 189.488 15.957 188.714 16.0977C188.082 18.8047 187.449 22.1621 186.816 26.1699C185.41 35.0293 184.425 41.4805 183.863 45.5234L174.16 47.0527C177.007 33.6934 178.923 23.2344 179.908 15.6758C179.064 15.5703 178.22 15.5352 177.376 15.5703C176.533 15.6055 175.689 15.5 174.845 15.2539Z"/>
<path d="M200.276 38.0352C201.155 38.0352 202.086 37.4902 203.071 36.4004C204.055 35.2754 204.688 34.1152 204.969 32.9199L211.139 35.3984C209.557 39.0898 207.483 42.0254 204.916 44.2051C202.631 46.1387 200.293 47.1055 197.903 47.1055C195.653 47.1055 193.825 46.0859 192.418 44.0469C190.942 41.8672 190.204 39.002 190.204 35.4512C190.204 31.9004 190.661 28.4727 191.575 25.168C192.524 21.8633 193.842 18.9102 195.53 16.3086C197.217 13.6719 199.221 11.5449 201.541 9.92773C203.897 8.31055 206.463 7.50195 209.241 7.50195C211.034 7.50195 212.563 8.1875 213.829 9.55859C215.059 10.9648 215.674 12.8105 215.674 15.0957V15.7812C215.674 15.9922 215.657 16.2207 215.622 16.4668L208.555 18.3652C208.133 17.4863 207.623 17.0469 207.026 17.0469C206.463 17.0469 205.866 17.3809 205.233 18.0488C204.6 18.7168 203.967 19.5781 203.334 20.6328C202.737 21.6875 202.157 22.8828 201.594 24.2188C201.032 25.5195 200.539 26.8379 200.118 28.1738C199.133 31.127 198.641 33.5176 198.641 35.3457C198.641 37.1387 199.186 38.0352 200.276 38.0352Z"/>
<path d="M211.468 47.1055C214.597 30.7578 216.882 17.75 218.324 8.08203L227.078 7.44922C225.671 13.3555 224.529 18.6641 223.65 23.375L228.976 22.7422C229.468 20.2109 229.908 17.75 230.294 15.3594C230.716 12.9336 231.244 10.4551 231.876 7.92383C233.283 7.67773 234.777 7.50195 236.359 7.39648C237.941 7.25586 239.031 7.16797 239.628 7.13281L240.525 7.02734C238.802 12.6523 237.115 20.5449 235.462 30.7051C234.654 35.2754 233.915 39.9512 233.247 44.7324L224.81 45.6816C225.267 43.5371 225.671 41.5156 226.023 39.6172C226.41 37.7188 226.779 35.8379 227.13 33.9746C227.517 32.1113 227.833 30.5117 228.079 29.1758L222.806 29.6504C221.997 34.1152 220.995 39.3535 219.8 45.3652L211.468 47.1055Z"/>
</mask>
<path d="M19.4011 37.7715L17.239 45.5234C16.4304 45.6289 15.4812 45.752 14.3914 45.8926C13.3367 46.0332 12.282 46.1738 11.2273 46.3145C10.1726 46.4199 9.08276 46.543 7.95776 46.6836C9.39917 41.9023 10.6121 37.8594 11.5964 34.5547C12.616 31.25 13.4421 28.543 14.075 26.4336C14.7078 24.2891 15.323 22.1797 15.9207 20.1055C16.5535 17.9961 17.1511 15.9746 17.7136 14.041C18.3113 12.0723 18.8386 10.2793 19.2957 8.66211C25.7996 8.20508 30.7566 7.64258 34.1667 6.97461C33.8503 10.4551 33.5867 14.5684 33.3757 19.3145C32.9187 28.7715 32.532 37.4902 32.2156 45.4707C31.1609 45.6465 30.1238 45.8047 29.1042 45.9453C28.1199 46.0859 27.0828 46.2441 25.9929 46.4199C24.9382 46.5957 23.9714 46.7539 23.0925 46.8945C23.4792 43.5195 23.8132 40.4785 24.0945 37.7715H19.4011ZM20.6667 32.3926L24.5691 32.1289C24.5691 31.918 24.5867 31.5664 24.6218 31.0742C24.6921 30.5469 24.7625 29.9492 24.8328 29.2812C25.114 25.5195 25.4128 22.0215 25.7292 18.7871L26.0984 14.0938L25.2546 14.1465L20.6667 32.3926Z" fill="url(#paint0_linear_196_65)"/>
<path d="M35.3923 47.4746C37.0095 30.916 37.9235 17.6797 38.1345 7.76562C40.736 7.76562 43.2497 7.66016 45.6755 7.44922L46.5192 7.34375C46.1325 11.5273 45.7985 14.9727 45.5173 17.6797C45.236 20.3516 45.0075 22.5312 44.8317 24.2188C44.6911 25.8711 44.5505 27.4707 44.4099 29.0176C44.1638 31.6543 43.9001 34.2207 43.6189 36.7168H44.6208L50.6325 8.0293C51.6169 7.99414 52.5837 7.94141 53.5329 7.87109C54.4821 7.80078 55.4489 7.74805 56.4333 7.71289C57.4177 7.64258 58.3317 7.55469 59.1755 7.44922C57.6638 12.3359 56.3454 17.0117 55.2204 21.4766C54.1306 25.9062 53.1638 29.7734 52.32 33.0781C51.5114 36.3828 50.5446 40.4785 49.4196 45.3652L35.3923 47.4746Z" fill="url(#paint1_linear_196_65)"/>
<path d="M63.1432 37.7715L60.9811 45.5234C60.1725 45.6289 59.2233 45.752 58.1335 45.8926C57.0788 46.0332 56.0241 46.1738 54.9694 46.3145C53.9147 46.4199 52.8249 46.543 51.6999 46.6836C53.1413 41.9023 54.3542 37.8594 55.3385 34.5547C56.3581 31.25 57.1842 28.543 57.8171 26.4336C58.4499 24.2891 59.0651 22.1797 59.6628 20.1055C60.2956 17.9961 60.8932 15.9746 61.4557 14.041C62.0534 12.0723 62.5807 10.2793 63.0378 8.66211C69.5417 8.20508 74.4987 7.64258 77.9089 6.97461C77.5925 10.4551 77.3288 14.5684 77.1178 19.3145C76.6608 28.7715 76.2741 37.4902 75.9577 45.4707C74.903 45.6465 73.8659 45.8047 72.8464 45.9453C71.862 46.0859 70.8249 46.2441 69.735 46.4199C68.6803 46.5957 67.7135 46.7539 66.8346 46.8945C67.2214 43.5195 67.5553 40.4785 67.8366 37.7715H63.1432ZM64.4089 32.3926L68.3112 32.1289C68.3112 31.918 68.3288 31.5664 68.3639 31.0742C68.4342 30.5469 68.5046 29.9492 68.5749 29.2812C68.8561 25.5195 69.155 22.0215 69.4714 18.7871L69.8405 14.0938L68.9967 14.1465L64.4089 32.3926Z" fill="url(#paint2_linear_196_65)"/>
<path d="M96.2203 19.4199C96.3961 18.7168 96.484 17.9785 96.484 17.2051C96.484 16.4316 96.2907 15.8164 95.9039 15.3594C95.5172 14.8672 95.0953 14.6211 94.6383 14.6211C94.2164 14.6211 93.7946 14.7266 93.3727 14.9375C92.9508 15.1484 92.5289 15.4297 92.1071 15.7812C91.1227 16.5898 90.6305 17.4688 90.6305 18.418C90.6305 19.332 90.8766 20.0879 91.3688 20.6855C91.861 21.248 92.4586 21.7754 93.1618 22.2676C93.9 22.7598 94.691 23.2695 95.5348 23.7969C96.3785 24.3242 97.1696 24.9922 97.9078 25.8008C99.5953 27.7695 100.439 30.3887 100.439 33.6582C100.439 37.5957 98.9977 40.8477 96.1149 43.4141C93.3727 45.875 89.9098 47.1055 85.7262 47.1055C82.6325 47.1055 79.8024 45.4883 77.236 42.2539L81.2438 34.3965C81.736 35.3809 82.6852 36.2773 84.0914 37.0859C85.4977 37.9297 86.5524 38.3516 87.2555 38.3516C87.9586 38.3516 88.5387 38.2812 88.9957 38.1406C89.4879 38 89.9274 37.7891 90.3141 37.5078C91.193 36.875 91.6325 36.1191 91.6325 35.2402C91.6325 34.3262 91.3512 33.5 90.7887 32.7617C90.2262 32.0234 89.5231 31.3203 88.6793 30.6523C87.8707 29.9844 86.9743 29.3164 85.9899 28.6484C85.0407 27.9453 84.1618 27.207 83.3532 26.4336C81.3844 24.6758 80.4 22.8301 80.4 20.8965C80.4 18.9629 80.945 17.1875 82.0348 15.5703C83.1598 13.9531 84.5485 12.5645 86.2008 11.4043C87.8883 10.209 89.7164 9.27734 91.6852 8.60938C93.6891 7.90625 95.3766 7.55469 96.7477 7.55469C98.1188 7.55469 99.2262 7.67773 100.07 7.92383C100.949 8.16992 101.705 8.53906 102.338 9.03125C103.709 10.1562 104.394 11.8086 104.394 13.9883C104.394 14.5156 104.341 15.0254 104.236 15.5176C104.166 16.0098 104.095 16.5547 104.025 17.1523L96.2203 19.4199Z" fill="url(#paint3_linear_196_65)"/>
<path d="M112.159 38.0352C113.038 38.0352 113.969 37.4902 114.954 36.4004C115.938 35.2754 116.571 34.1152 116.852 32.9199L123.022 35.3984C121.44 39.0898 119.366 42.0254 116.799 44.2051C114.514 46.1387 112.176 47.1055 109.786 47.1055C107.536 47.1055 105.708 46.0859 104.301 44.0469C102.825 41.8672 102.087 39.002 102.087 35.4512C102.087 31.9004 102.544 28.4727 103.458 25.168C104.407 21.8633 105.725 18.9102 107.413 16.3086C109.1 13.6719 111.104 11.5449 113.424 9.92773C115.78 8.31055 118.346 7.50195 121.124 7.50195C122.917 7.50195 124.446 8.1875 125.712 9.55859C126.942 10.9648 127.557 12.8105 127.557 15.0957V15.7812C127.557 15.9922 127.54 16.2207 127.504 16.4668L120.438 18.3652C120.016 17.4863 119.506 17.0469 118.909 17.0469C118.346 17.0469 117.749 17.3809 117.116 18.0488C116.483 18.7168 115.85 19.5781 115.217 20.6328C114.62 21.6875 114.04 22.8828 113.477 24.2188C112.915 25.5195 112.422 26.8379 112.001 28.1738C111.016 31.127 110.524 33.5176 110.524 35.3457C110.524 37.1387 111.069 38.0352 112.159 38.0352Z" fill="url(#paint4_linear_196_65)"/>
<path d="M139.33 46.1562C136.623 36.5938 135.216 31.1621 135.111 29.8613L134.425 30.0723C133.265 36.541 132.404 41.4453 131.841 44.7852L123.087 47.0527C126.744 29.3691 128.976 16.8184 129.785 9.40039C133.863 8.13477 138.433 7.50195 143.496 7.50195C147.293 7.50195 149.543 8.82031 150.246 11.457C150.457 12.2656 150.562 13.2676 150.562 14.4629C150.562 15.6582 150.316 16.959 149.824 18.3652C149.332 19.7363 148.664 21.0547 147.82 22.3203C146.062 24.8867 143.9 26.8555 141.334 28.2266C142.705 31.1797 143.918 33.9746 144.972 36.6113C146.062 39.2129 146.976 41.4102 147.714 43.2031L139.33 46.1562ZM139.857 14.9902L137.537 15.043L135.796 23.6387C137.203 23.498 138.978 22.6016 141.123 20.9492C143.337 19.2617 144.445 17.873 144.445 16.7832C144.445 15.7637 143.478 15.1836 141.544 15.043C140.982 15.0078 140.419 14.9902 139.857 14.9902Z" fill="url(#paint5_linear_196_65)"/>
<path d="M157.694 37.7715L155.532 45.5234C154.723 45.6289 153.774 45.752 152.684 45.8926C151.629 46.0332 150.575 46.1738 149.52 46.3145C148.465 46.4199 147.375 46.543 146.25 46.6836C147.692 41.9023 148.905 37.8594 149.889 34.5547C150.909 31.25 151.735 28.543 152.368 26.4336C153 24.2891 153.616 22.1797 154.213 20.1055C154.846 17.9961 155.444 15.9746 156.006 14.041C156.604 12.0723 157.131 10.2793 157.588 8.66211C164.092 8.20508 169.049 7.64258 172.459 6.97461C172.143 10.4551 171.879 14.5684 171.668 19.3145C171.211 28.7715 170.825 37.4902 170.508 45.4707C169.454 45.6465 168.417 45.8047 167.397 45.9453C166.413 46.0859 165.375 46.2441 164.286 46.4199C163.231 46.5957 162.264 46.7539 161.385 46.8945C161.772 43.5195 162.106 40.4785 162.387 37.7715H157.694ZM158.959 32.3926L162.862 32.1289C162.862 31.918 162.879 31.5664 162.915 31.0742C162.985 30.5469 163.055 29.9492 163.125 29.2812C163.407 25.5195 163.706 22.0215 164.022 18.7871L164.391 14.0938L163.547 14.1465L158.959 32.3926Z" fill="url(#paint6_linear_196_65)"/>
<path d="M174.845 15.2539L175.109 8.3457C176.937 8.48633 178.783 8.55664 180.646 8.55664C185.568 8.55664 190.367 8.25781 195.042 7.66016L194.462 10.5605C194.287 11.3691 194.111 12.2129 193.935 13.0918C193.794 13.9355 193.654 14.6738 193.513 15.3066C192.705 15.5176 191.896 15.6758 191.087 15.7812C190.279 15.8516 189.488 15.957 188.714 16.0977C188.082 18.8047 187.449 22.1621 186.816 26.1699C185.41 35.0293 184.425 41.4805 183.863 45.5234L174.16 47.0527C177.007 33.6934 178.923 23.2344 179.908 15.6758C179.064 15.5703 178.22 15.5352 177.376 15.5703C176.533 15.6055 175.689 15.5 174.845 15.2539Z" fill="url(#paint7_linear_196_65)"/>
<path d="M200.276 38.0352C201.155 38.0352 202.086 37.4902 203.071 36.4004C204.055 35.2754 204.688 34.1152 204.969 32.9199L211.139 35.3984C209.557 39.0898 207.483 42.0254 204.916 44.2051C202.631 46.1387 200.293 47.1055 197.903 47.1055C195.653 47.1055 193.825 46.0859 192.418 44.0469C190.942 41.8672 190.204 39.002 190.204 35.4512C190.204 31.9004 190.661 28.4727 191.575 25.168C192.524 21.8633 193.842 18.9102 195.53 16.3086C197.217 13.6719 199.221 11.5449 201.541 9.92773C203.897 8.31055 206.463 7.50195 209.241 7.50195C211.034 7.50195 212.563 8.1875 213.829 9.55859C215.059 10.9648 215.674 12.8105 215.674 15.0957V15.7812C215.674 15.9922 215.657 16.2207 215.622 16.4668L208.555 18.3652C208.133 17.4863 207.623 17.0469 207.026 17.0469C206.463 17.0469 205.866 17.3809 205.233 18.0488C204.6 18.7168 203.967 19.5781 203.334 20.6328C202.737 21.6875 202.157 22.8828 201.594 24.2188C201.032 25.5195 200.539 26.8379 200.118 28.1738C199.133 31.127 198.641 33.5176 198.641 35.3457C198.641 37.1387 199.186 38.0352 200.276 38.0352Z" fill="url(#paint8_linear_196_65)"/>
<path d="M211.468 47.1055C214.597 30.7578 216.882 17.75 218.324 8.08203L227.078 7.44922C225.671 13.3555 224.529 18.6641 223.65 23.375L228.976 22.7422C229.468 20.2109 229.908 17.75 230.294 15.3594C230.716 12.9336 231.244 10.4551 231.876 7.92383C233.283 7.67773 234.777 7.50195 236.359 7.39648C237.941 7.25586 239.031 7.16797 239.628 7.13281L240.525 7.02734C238.802 12.6523 237.115 20.5449 235.462 30.7051C234.654 35.2754 233.915 39.9512 233.247 44.7324L224.81 45.6816C225.267 43.5371 225.671 41.5156 226.023 39.6172C226.41 37.7188 226.779 35.8379 227.13 33.9746C227.517 32.1113 227.833 30.5117 228.079 29.1758L222.806 29.6504C221.997 34.1152 220.995 39.3535 219.8 45.3652L211.468 47.1055Z" fill="url(#paint9_linear_196_65)"/>
<path d="M19.4011 37.7715L17.239 45.5234C16.4304 45.6289 15.4812 45.752 14.3914 45.8926C13.3367 46.0332 12.282 46.1738 11.2273 46.3145C10.1726 46.4199 9.08276 46.543 7.95776 46.6836C9.39917 41.9023 10.6121 37.8594 11.5964 34.5547C12.616 31.25 13.4421 28.543 14.075 26.4336C14.7078 24.2891 15.323 22.1797 15.9207 20.1055C16.5535 17.9961 17.1511 15.9746 17.7136 14.041C18.3113 12.0723 18.8386 10.2793 19.2957 8.66211C25.7996 8.20508 30.7566 7.64258 34.1667 6.97461C33.8503 10.4551 33.5867 14.5684 33.3757 19.3145C32.9187 28.7715 32.532 37.4902 32.2156 45.4707C31.1609 45.6465 30.1238 45.8047 29.1042 45.9453C28.1199 46.0859 27.0828 46.2441 25.9929 46.4199C24.9382 46.5957 23.9714 46.7539 23.0925 46.8945C23.4792 43.5195 23.8132 40.4785 24.0945 37.7715H19.4011ZM20.6667 32.3926L24.5691 32.1289C24.5691 31.918 24.5867 31.5664 24.6218 31.0742C24.6921 30.5469 24.7625 29.9492 24.8328 29.2812C25.114 25.5195 25.4128 22.0215 25.7292 18.7871L26.0984 14.0938L25.2546 14.1465L20.6667 32.3926Z" stroke="#0A0007" stroke-width="10" mask="url(#path-1-outside-1_196_65)"/>
<path d="M35.3923 47.4746C37.0095 30.916 37.9235 17.6797 38.1345 7.76562C40.736 7.76562 43.2497 7.66016 45.6755 7.44922L46.5192 7.34375C46.1325 11.5273 45.7985 14.9727 45.5173 17.6797C45.236 20.3516 45.0075 22.5312 44.8317 24.2188C44.6911 25.8711 44.5505 27.4707 44.4099 29.0176C44.1638 31.6543 43.9001 34.2207 43.6189 36.7168H44.6208L50.6325 8.0293C51.6169 7.99414 52.5837 7.94141 53.5329 7.87109C54.4821 7.80078 55.4489 7.74805 56.4333 7.71289C57.4177 7.64258 58.3317 7.55469 59.1755 7.44922C57.6638 12.3359 56.3454 17.0117 55.2204 21.4766C54.1306 25.9062 53.1638 29.7734 52.32 33.0781C51.5114 36.3828 50.5446 40.4785 49.4196 45.3652L35.3923 47.4746Z" stroke="#0A0007" stroke-width="10" mask="url(#path-1-outside-1_196_65)"/>
<path d="M63.1432 37.7715L60.9811 45.5234C60.1725 45.6289 59.2233 45.752 58.1335 45.8926C57.0788 46.0332 56.0241 46.1738 54.9694 46.3145C53.9147 46.4199 52.8249 46.543 51.6999 46.6836C53.1413 41.9023 54.3542 37.8594 55.3385 34.5547C56.3581 31.25 57.1842 28.543 57.8171 26.4336C58.4499 24.2891 59.0651 22.1797 59.6628 20.1055C60.2956 17.9961 60.8932 15.9746 61.4557 14.041C62.0534 12.0723 62.5807 10.2793 63.0378 8.66211C69.5417 8.20508 74.4987 7.64258 77.9089 6.97461C77.5925 10.4551 77.3288 14.5684 77.1178 19.3145C76.6608 28.7715 76.2741 37.4902 75.9577 45.4707C74.903 45.6465 73.8659 45.8047 72.8464 45.9453C71.862 46.0859 70.8249 46.2441 69.735 46.4199C68.6803 46.5957 67.7135 46.7539 66.8346 46.8945C67.2214 43.5195 67.5553 40.4785 67.8366 37.7715H63.1432ZM64.4089 32.3926L68.3112 32.1289C68.3112 31.918 68.3288 31.5664 68.3639 31.0742C68.4342 30.5469 68.5046 29.9492 68.5749 29.2812C68.8561 25.5195 69.155 22.0215 69.4714 18.7871L69.8405 14.0938L68.9967 14.1465L64.4089 32.3926Z" stroke="#0A0007" stroke-width="10" mask="url(#path-1-outside-1_196_65)"/>
<path d="M96.2203 19.4199C96.3961 18.7168 96.484 17.9785 96.484 17.2051C96.484 16.4316 96.2907 15.8164 95.9039 15.3594C95.5172 14.8672 95.0953 14.6211 94.6383 14.6211C94.2164 14.6211 93.7946 14.7266 93.3727 14.9375C92.9508 15.1484 92.5289 15.4297 92.1071 15.7812C91.1227 16.5898 90.6305 17.4688 90.6305 18.418C90.6305 19.332 90.8766 20.0879 91.3688 20.6855C91.861 21.248 92.4586 21.7754 93.1618 22.2676C93.9 22.7598 94.691 23.2695 95.5348 23.7969C96.3785 24.3242 97.1696 24.9922 97.9078 25.8008C99.5953 27.7695 100.439 30.3887 100.439 33.6582C100.439 37.5957 98.9977 40.8477 96.1149 43.4141C93.3727 45.875 89.9098 47.1055 85.7262 47.1055C82.6325 47.1055 79.8024 45.4883 77.236 42.2539L81.2438 34.3965C81.736 35.3809 82.6852 36.2773 84.0914 37.0859C85.4977 37.9297 86.5524 38.3516 87.2555 38.3516C87.9586 38.3516 88.5387 38.2812 88.9957 38.1406C89.4879 38 89.9274 37.7891 90.3141 37.5078C91.193 36.875 91.6325 36.1191 91.6325 35.2402C91.6325 34.3262 91.3512 33.5 90.7887 32.7617C90.2262 32.0234 89.5231 31.3203 88.6793 30.6523C87.8707 29.9844 86.9743 29.3164 85.9899 28.6484C85.0407 27.9453 84.1618 27.207 83.3532 26.4336C81.3844 24.6758 80.4 22.8301 80.4 20.8965C80.4 18.9629 80.945 17.1875 82.0348 15.5703C83.1598 13.9531 84.5485 12.5645 86.2008 11.4043C87.8883 10.209 89.7164 9.27734 91.6852 8.60938C93.6891 7.90625 95.3766 7.55469 96.7477 7.55469C98.1188 7.55469 99.2262 7.67773 100.07 7.92383C100.949 8.16992 101.705 8.53906 102.338 9.03125C103.709 10.1562 104.394 11.8086 104.394 13.9883C104.394 14.5156 104.341 15.0254 104.236 15.5176C104.166 16.0098 104.095 16.5547 104.025 17.1523L96.2203 19.4199Z" stroke="#0A0007" stroke-width="10" mask="url(#path-1-outside-1_196_65)"/>
<path d="M112.159 38.0352C113.038 38.0352 113.969 37.4902 114.954 36.4004C115.938 35.2754 116.571 34.1152 116.852 32.9199L123.022 35.3984C121.44 39.0898 119.366 42.0254 116.799 44.2051C114.514 46.1387 112.176 47.1055 109.786 47.1055C107.536 47.1055 105.708 46.0859 104.301 44.0469C102.825 41.8672 102.087 39.002 102.087 35.4512C102.087 31.9004 102.544 28.4727 103.458 25.168C104.407 21.8633 105.725 18.9102 107.413 16.3086C109.1 13.6719 111.104 11.5449 113.424 9.92773C115.78 8.31055 118.346 7.50195 121.124 7.50195C122.917 7.50195 124.446 8.1875 125.712 9.55859C126.942 10.9648 127.557 12.8105 127.557 15.0957V15.7812C127.557 15.9922 127.54 16.2207 127.504 16.4668L120.438 18.3652C120.016 17.4863 119.506 17.0469 118.909 17.0469C118.346 17.0469 117.749 17.3809 117.116 18.0488C116.483 18.7168 115.85 19.5781 115.217 20.6328C114.62 21.6875 114.04 22.8828 113.477 24.2188C112.915 25.5195 112.422 26.8379 112.001 28.1738C111.016 31.127 110.524 33.5176 110.524 35.3457C110.524 37.1387 111.069 38.0352 112.159 38.0352Z" stroke="#0A0007" stroke-width="10" mask="url(#path-1-outside-1_196_65)"/>
<path d="M139.33 46.1562C136.623 36.5938 135.216 31.1621 135.111 29.8613L134.425 30.0723C133.265 36.541 132.404 41.4453 131.841 44.7852L123.087 47.0527C126.744 29.3691 128.976 16.8184 129.785 9.40039C133.863 8.13477 138.433 7.50195 143.496 7.50195C147.293 7.50195 149.543 8.82031 150.246 11.457C150.457 12.2656 150.562 13.2676 150.562 14.4629C150.562 15.6582 150.316 16.959 149.824 18.3652C149.332 19.7363 148.664 21.0547 147.82 22.3203C146.062 24.8867 143.9 26.8555 141.334 28.2266C142.705 31.1797 143.918 33.9746 144.972 36.6113C146.062 39.2129 146.976 41.4102 147.714 43.2031L139.33 46.1562ZM139.857 14.9902L137.537 15.043L135.796 23.6387C137.203 23.498 138.978 22.6016 141.123 20.9492C143.337 19.2617 144.445 17.873 144.445 16.7832C144.445 15.7637 143.478 15.1836 141.544 15.043C140.982 15.0078 140.419 14.9902 139.857 14.9902Z" stroke="#0A0007" stroke-width="10" mask="url(#path-1-outside-1_196_65)"/>
<path d="M157.694 37.7715L155.532 45.5234C154.723 45.6289 153.774 45.752 152.684 45.8926C151.629 46.0332 150.575 46.1738 149.52 46.3145C148.465 46.4199 147.375 46.543 146.25 46.6836C147.692 41.9023 148.905 37.8594 149.889 34.5547C150.909 31.25 151.735 28.543 152.368 26.4336C153 24.2891 153.616 22.1797 154.213 20.1055C154.846 17.9961 155.444 15.9746 156.006 14.041C156.604 12.0723 157.131 10.2793 157.588 8.66211C164.092 8.20508 169.049 7.64258 172.459 6.97461C172.143 10.4551 171.879 14.5684 171.668 19.3145C171.211 28.7715 170.825 37.4902 170.508 45.4707C169.454 45.6465 168.417 45.8047 167.397 45.9453C166.413 46.0859 165.375 46.2441 164.286 46.4199C163.231 46.5957 162.264 46.7539 161.385 46.8945C161.772 43.5195 162.106 40.4785 162.387 37.7715H157.694ZM158.959 32.3926L162.862 32.1289C162.862 31.918 162.879 31.5664 162.915 31.0742C162.985 30.5469 163.055 29.9492 163.125 29.2812C163.407 25.5195 163.706 22.0215 164.022 18.7871L164.391 14.0938L163.547 14.1465L158.959 32.3926Z" stroke="#0A0007" stroke-width="10" mask="url(#path-1-outside-1_196_65)"/>
<path d="M174.845 15.2539L175.109 8.3457C176.937 8.48633 178.783 8.55664 180.646 8.55664C185.568 8.55664 190.367 8.25781 195.042 7.66016L194.462 10.5605C194.287 11.3691 194.111 12.2129 193.935 13.0918C193.794 13.9355 193.654 14.6738 193.513 15.3066C192.705 15.5176 191.896 15.6758 191.087 15.7812C190.279 15.8516 189.488 15.957 188.714 16.0977C188.082 18.8047 187.449 22.1621 186.816 26.1699C185.41 35.0293 184.425 41.4805 183.863 45.5234L174.16 47.0527C177.007 33.6934 178.923 23.2344 179.908 15.6758C179.064 15.5703 178.22 15.5352 177.376 15.5703C176.533 15.6055 175.689 15.5 174.845 15.2539Z" stroke="#0A0007" stroke-width="10" mask="url(#path-1-outside-1_196_65)"/>
<path d="M200.276 38.0352C201.155 38.0352 202.086 37.4902 203.071 36.4004C204.055 35.2754 204.688 34.1152 204.969 32.9199L211.139 35.3984C209.557 39.0898 207.483 42.0254 204.916 44.2051C202.631 46.1387 200.293 47.1055 197.903 47.1055C195.653 47.1055 193.825 46.0859 192.418 44.0469C190.942 41.8672 190.204 39.002 190.204 35.4512C190.204 31.9004 190.661 28.4727 191.575 25.168C192.524 21.8633 193.842 18.9102 195.53 16.3086C197.217 13.6719 199.221 11.5449 201.541 9.92773C203.897 8.31055 206.463 7.50195 209.241 7.50195C211.034 7.50195 212.563 8.1875 213.829 9.55859C215.059 10.9648 215.674 12.8105 215.674 15.0957V15.7812C215.674 15.9922 215.657 16.2207 215.622 16.4668L208.555 18.3652C208.133 17.4863 207.623 17.0469 207.026 17.0469C206.463 17.0469 205.866 17.3809 205.233 18.0488C204.6 18.7168 203.967 19.5781 203.334 20.6328C202.737 21.6875 202.157 22.8828 201.594 24.2188C201.032 25.5195 200.539 26.8379 200.118 28.1738C199.133 31.127 198.641 33.5176 198.641 35.3457C198.641 37.1387 199.186 38.0352 200.276 38.0352Z" stroke="#0A0007" stroke-width="10" mask="url(#path-1-outside-1_196_65)"/>
<path d="M211.468 47.1055C214.597 30.7578 216.882 17.75 218.324 8.08203L227.078 7.44922C225.671 13.3555 224.529 18.6641 223.65 23.375L228.976 22.7422C229.468 20.2109 229.908 17.75 230.294 15.3594C230.716 12.9336 231.244 10.4551 231.876 7.92383C233.283 7.67773 234.777 7.50195 236.359 7.39648C237.941 7.25586 239.031 7.16797 239.628 7.13281L240.525 7.02734C238.802 12.6523 237.115 20.5449 235.462 30.7051C234.654 35.2754 233.915 39.9512 233.247 44.7324L224.81 45.6816C225.267 43.5371 225.671 41.5156 226.023 39.6172C226.41 37.7188 226.779 35.8379 227.13 33.9746C227.517 32.1113 227.833 30.5117 228.079 29.1758L222.806 29.6504C221.997 34.1152 220.995 39.3535 219.8 45.3652L211.468 47.1055Z" stroke="#0A0007" stroke-width="10" mask="url(#path-1-outside-1_196_65)"/>
<defs>
<linearGradient id="paint0_linear_196_65" x1="124.241" y1="6.97461" x2="124.241" y2="47.4746" gradientUnits="userSpaceOnUse">
<stop stop-color="#F7DA10"/>
<stop offset="1" stop-color="#FFB900"/>
</linearGradient>
<linearGradient id="paint1_linear_196_65" x1="124.241" y1="6.97461" x2="124.241" y2="47.4746" gradientUnits="userSpaceOnUse">
<stop stop-color="#F7DA10"/>
<stop offset="1" stop-color="#FFB900"/>
</linearGradient>
<linearGradient id="paint2_linear_196_65" x1="124.241" y1="6.97461" x2="124.241" y2="47.4746" gradientUnits="userSpaceOnUse">
<stop stop-color="#F7DA10"/>
<stop offset="1" stop-color="#FFB900"/>
</linearGradient>
<linearGradient id="paint3_linear_196_65" x1="124.241" y1="6.97461" x2="124.241" y2="47.4746" gradientUnits="userSpaceOnUse">
<stop stop-color="#F7DA10"/>
<stop offset="1" stop-color="#FFB900"/>
</linearGradient>
<linearGradient id="paint4_linear_196_65" x1="124.241" y1="6.97461" x2="124.241" y2="47.4746" gradientUnits="userSpaceOnUse">
<stop stop-color="#F7DA10"/>
<stop offset="1" stop-color="#FFB900"/>
</linearGradient>
<linearGradient id="paint5_linear_196_65" x1="124.241" y1="6.97461" x2="124.241" y2="47.4746" gradientUnits="userSpaceOnUse">
<stop stop-color="#F7DA10"/>
<stop offset="1" stop-color="#FFB900"/>
</linearGradient>
<linearGradient id="paint6_linear_196_65" x1="124.241" y1="6.97461" x2="124.241" y2="47.4746" gradientUnits="userSpaceOnUse">
<stop stop-color="#F7DA10"/>
<stop offset="1" stop-color="#FFB900"/>
</linearGradient>
<linearGradient id="paint7_linear_196_65" x1="124.241" y1="6.97461" x2="124.241" y2="47.4746" gradientUnits="userSpaceOnUse">
<stop stop-color="#F7DA10"/>
<stop offset="1" stop-color="#FFB900"/>
</linearGradient>
<linearGradient id="paint8_linear_196_65" x1="124.241" y1="6.97461" x2="124.241" y2="47.4746" gradientUnits="userSpaceOnUse">
<stop stop-color="#F7DA10"/>
<stop offset="1" stop-color="#FFB900"/>
</linearGradient>
<linearGradient id="paint9_linear_196_65" x1="124.241" y1="6.97461" x2="124.241" y2="47.4746" gradientUnits="userSpaceOnUse">
<stop stop-color="#F7DA10"/>
<stop offset="1" stop-color="#FFB900"/>
</linearGradient>
</defs>
</svg>
