<svg width="368" height="230" viewBox="0 0 368 230" fill="none" xmlns="http://www.w3.org/2000/svg">
<g filter="url(#filter0_d_2_210)">
<path d="M24.75 178.584L58.875 170.011L54 197.772L83.25 178.584L88.125 219L108.844 181.85L123.062 219L136.062 184.708L153.938 219L166.531 190.015L177.094 219L189.281 193.281L214.062 219L225.031 190.015L237.625 214.509L247.375 184.708L269.719 214.509L279.875 178.584L305.062 204.303V169.195L334.312 176.543L325.375 151.64L355.438 145.925L338.375 123.88L366 116.124L340.812 96.1199L366 84.2809L340.812 68.7678L363.156 53.2547L335.531 44.2734L343.25 16.5131L303.031 32.8427L299.781 10.3895L274.594 30.3933L257.938 5.0824L240.875 30.3933L221.781 1L203.5 30.3933L189.281 5.0824L166.531 25.4944L147.031 1L125.5 25.4944L101.938 5.0824L85.6875 25.4944L58.875 5.0824L54 30.3933L15.8125 19.779L31.25 48.764L7.6875 57.7453L28.8125 80.6067L4.84375 89.1798L28.8125 106.326L2 119.798L34.0938 130.412L12.1562 145.925L40.5938 155.315L24.75 178.584Z" fill="#DBDBD1"/>
<path d="M24.75 178.584L58.875 170.011L54 197.772L83.25 178.584L88.125 219L108.844 181.85L123.062 219L136.062 184.708L153.938 219L166.531 190.015L177.094 219L189.281 193.281L214.062 219L225.031 190.015L237.625 214.509L247.375 184.708L269.719 214.509L279.875 178.584L305.062 204.303V169.195L334.312 176.543L325.375 151.64L355.438 145.925L338.375 123.88L366 116.124L340.812 96.1199L366 84.2809L340.812 68.7678L363.156 53.2547L335.531 44.2734L343.25 16.5131L303.031 32.8427L299.781 10.3895L274.594 30.3933L257.938 5.0824L240.875 30.3933L221.781 1L203.5 30.3933L189.281 5.0824L166.531 25.4944L147.031 1L125.5 25.4944L101.938 5.0824L85.6875 25.4944L58.875 5.0824L54 30.3933L15.8125 19.779L31.25 48.764L7.6875 57.7453L28.8125 80.6067L4.84375 89.1798L28.8125 106.326L2 119.798L34.0938 130.412L12.1562 145.925L40.5938 155.315L24.75 178.584Z" stroke="black"/>
</g>
<defs>
<filter id="filter0_d_2_210" x="0.696304" y="0.0680237" width="366.381" height="229.518" filterUnits="userSpaceOnUse" color-interpolation-filters="sRGB">
<feFlood flood-opacity="0" result="BackgroundImageFix"/>
<feColorMatrix in="SourceAlpha" type="matrix" values="0 0 0 0 0 0 0 0 0 0 0 0 0 0 0 0 0 0 127 0" result="hardAlpha"/>
<feOffset dy="9"/>
<feComposite in2="hardAlpha" operator="out"/>
<feColorMatrix type="matrix" values="0 0 0 0 0 0 0 0 0 0 0 0 0 0 0 0 0 0 0.95 0"/>
<feBlend mode="normal" in2="BackgroundImageFix" result="effect1_dropShadow_2_210"/>
<feBlend mode="normal" in="SourceGraphic" in2="effect1_dropShadow_2_210" result="shape"/>
</filter>
</defs>
</svg>
