<svg width="387" height="404" viewBox="0 0 387 404" fill="none" xmlns="http://www.w3.org/2000/svg">
<path d="M146.624 170.544L10.1326 101.947L150.415 148.563L44.6345 66.7017L162.548 136.814L240.651 121.655L342.261 0L246.338 130.75L342.261 66.7017L254.3 148.563L387 101.947L280.461 153.869L273.257 166.754L387 156.522L273.257 181.535L387 199.347L273.257 191.388L387 237.246L282.357 218.675L387 288.409L278.565 245.583L387 337.298L278.565 275.144L372.593 380.124L256.196 275.144L331.266 404L232.689 268.323L282.357 404L222.831 275.144H169.372L95.8187 404L159.515 268.323L49.5634 399.452L153.448 263.396L2.17057 372.544L146.624 245.583L-2 325.171L134.491 222.465L-2 278.555L115.534 206.548L-2 229.666L99.9893 191.388H-2L124.634 177.745L-2 151.595L146.624 170.544Z" fill="url(#paint0_radial_2_209)"/>
<defs>
<radialGradient id="paint0_radial_2_209" cx="0" cy="0" r="1" gradientUnits="userSpaceOnUse" gradientTransform="translate(192.5 202) rotate(90) scale(202 194.5)">
<stop offset="0.6875" stop-color="#F1CE6C"/>
<stop offset="1" stop-color="#FF5900"/>
</radialGradient>
</defs>
</svg>
